<svg width="121" height="130" viewBox="0 0 121 130" fill="none" xmlns="http://www.w3.org/2000/svg">
	<path d="M60.4273 0.000568596C59.8161 0.0100735 59.2129 0.139796 58.6518 0.381779C58.0908 0.623761 57.5831 0.973371 57.1576 1.41099C56.7322 1.84861 56.3972 2.36524 56.1722 2.93186C55.9471 3.49849 55.8362 4.10393 55.8458 4.7133V69.6765C55.8371 70.2914 55.951 70.902 56.181 71.4726C56.411 72.0432 56.7524 72.5624 57.1855 73.0003C57.6185 73.4382 58.1345 73.786 58.7035 74.0233C59.2725 74.2606 59.8832 74.383 60.5 74.383C61.1168 74.383 61.7275 74.2606 62.2965 74.0233C62.8655 73.786 63.3815 73.4382 63.8145 73.0003C64.2476 72.5624 64.589 72.0432 64.819 71.4726C65.049 70.902 65.1629 70.2914 65.1542 69.6765V4.7133C65.164 4.09173 65.0483 3.47461 64.8142 2.89844C64.5801 2.32228 64.2324 1.79901 63.7915 1.35944C63.3506 0.919877 62.8255 0.572689 62.2476 0.339296C61.6697 0.105903 61.0507 -0.00915436 60.4273 0.000568596V0.000568596ZM32.3565 19.0509C31.6252 19.0969 30.915 19.3146 30.2839 19.6858C6.59867 33.0214 -5.03577 60.3548 2.06769 86.2079C9.17115 112.061 33.1842 130 60.5 130C87.8158 130 111.829 112.061 118.932 86.2079C126.036 60.3548 114.401 33.0214 90.7161 19.6858C90.1837 19.3859 89.5971 19.1934 88.9901 19.1194C88.383 19.0454 87.7675 19.091 87.1783 19.2542C86.589 19.4175 86.0376 19.6948 85.5559 20.0705C85.0742 20.4461 84.6716 20.9127 84.3708 21.4435C84.0699 21.9743 83.8768 22.5591 83.8026 23.1643C83.7285 23.7695 83.7746 24.3838 83.9384 24.9712C84.1022 25.5587 84.3806 26.1082 84.7574 26.5884C85.1342 27.0686 85.6021 27.4701 86.1346 27.77C106.231 39.0849 115.932 61.9929 109.951 83.7609C103.97 105.529 83.7388 120.72 60.5 120.72C37.2612 120.72 17.0299 105.529 11.0489 83.7609C5.06784 61.9929 14.769 39.0849 34.8654 27.77C35.802 27.2684 36.5381 26.4622 36.9513 25.4856C37.3646 24.509 37.4303 23.4208 37.1371 22.4019C36.8439 21.383 36.2095 20.4949 35.3398 19.8852C34.4701 19.2756 33.4174 18.9811 32.3565 19.0509V19.0509Z" fill="white"/>
</svg>
