<svg width="6" height="11" viewBox="0 0 6 11" fill="none" xmlns="http://www.w3.org/2000/svg">
<path d="M1.49413 0.994141C1.39454 0.994159 1.29723 1.02391 1.21465 1.07959C1.13208 1.13527 1.06801 1.21432 1.03066 1.30664C0.993316 1.39896 0.984398 1.50035 1.00503 1.59778C1.02566 1.69521 1.07491 1.78426 1.14648 1.85352L4.79296 5.5L1.14648 9.14648C1.09854 9.19257 1.06028 9.24772 1.03393 9.30878C1.00758 9.36983 0.993661 9.43552 0.993005 9.50201C0.99235 9.56851 1.00494 9.63448 1.03008 9.69604C1.05523 9.75761 1.09241 9.81351 1.13943 9.86053C1.18645 9.90756 1.24239 9.94477 1.30395 9.96991C1.36551 9.99505 1.43146 10.0077 1.49795 10.007C1.56444 10.0064 1.63013 9.99242 1.69119 9.96606C1.75224 9.93971 1.80743 9.90145 1.85351 9.85352L5.85351 5.85352C5.94725 5.75974 5.9999 5.63259 5.9999 5.5C5.9999 5.36741 5.94725 5.24026 5.85351 5.14648L1.85351 1.14648C1.80688 1.09829 1.75103 1.05998 1.68929 1.03381C1.62756 1.00764 1.56119 0.994139 1.49413 0.994141Z" fill="white"/>
</svg>
