<svg xmlns="http://www.w3.org/2000/svg" height="48" fill="white" viewBox="0 96 960 960" width="48"><path d="M86.825 761q-20.85 0-33.338-13.312Q41 734.375 41 716V230.321q0-39.071 27.856-66.196Q96.713 137 134 137h486q19.775 0 32.388 12.675Q665 162.351 665 181.991q0 20.641-12.612 33.325Q639.775 228 620 228H133v488q0 18.375-13.65 31.688Q105.699 761 86.825 761Zm128 117q-19.85 0-32.337-13.312Q170 851.375 170 833V358q0-38.287 27.356-66.144Q224.712 264 262 264h475q19.775 0 32.388 13.875Q782 291.751 782 310.491q0 20.141-12.612 32.825Q756.775 356 737 356H261v477q0 18.375-13.65 31.688Q233.699 878 214.825 878ZM826 1016H390q-36.288 0-64.144-27.801Q298 960.398 298 920.4V486q0-37.287 27.856-65.144Q353.712 393 390 393h436q37.287 0 65.644 27.653Q920 448.305 920 486.2v434.4q0 39.39-28.356 67.395Q863.287 1016 826 1016Z"/></svg>