<svg width="15" height="15" viewBox="0 0 15 15" fill="none" xmlns="http://www.w3.org/2000/svg">
<g opacity="0.7">
<path fill-rule="evenodd" clip-rule="evenodd" d="M6.96876 -0.00396219C6.9524 -0.00276308 6.93612 -0.000779218 6.91996 0.00201925C6.89007 0.00651628 6.86066 0.0136968 6.83207 0.0235036C6.60703 0.0285036 6.38153 0.0239874 6.15824 0.0508474C4.649 0.232687 3.20001 0.904109 2.06254 2.03327C-0.2124 4.29161 -0.662394 7.81361 0.972696 10.5704C2.23348 12.6961 4.48991 13.938 6.86527 13.9844C6.86592 13.9845 6.86626 13.9844 6.86726 13.9844C6.97224 14.0163 7.08479 14.0128 7.18757 13.9744C7.78794 13.9584 8.39159 13.8877 8.98835 13.7108C9.0534 13.6938 9.11438 13.664 9.16764 13.6231C9.22091 13.5821 9.26538 13.5308 9.29841 13.4723C9.33144 13.4138 9.35233 13.3492 9.35987 13.2825C9.36741 13.2157 9.36141 13.1481 9.34226 13.0837C9.32312 13.0194 9.29121 12.9595 9.24842 12.9077C9.20563 12.8559 9.15285 12.8132 9.09321 12.7822C9.03357 12.7513 8.96829 12.7326 8.90129 12.7274C8.83428 12.7221 8.76692 12.7304 8.7032 12.7518C8.17819 12.9074 7.64837 12.9672 7.12116 12.9783C6.79911 12.76 6.25909 12.1568 5.8321 11.2049C5.67363 10.8516 5.53642 10.4378 5.41218 9.99982H7.50001C7.56694 10.0018 7.63358 9.99031 7.69599 9.96607C7.7584 9.94183 7.81532 9.90533 7.86335 9.85871C7.91139 9.81208 7.94958 9.75629 7.97566 9.69465C8.00173 9.633 8.01515 9.56675 8.01515 9.49982C8.01515 9.43289 8.00173 9.36664 7.97566 9.305C7.94958 9.24335 7.91139 9.18756 7.86335 9.14093C7.81532 9.09431 7.7584 9.05782 7.69599 9.03357C7.63358 9.00933 7.56694 8.99785 7.50001 8.99982H5.1836C5.07458 8.38503 5.00001 7.72508 5.00001 6.99994C5.00001 6.27146 5.07401 5.61203 5.1836 4.99994H8.7461C8.90362 5.77166 9.00001 6.61383 9.00001 7.49994C8.99833 7.56663 9.01003 7.63297 9.0344 7.69507C9.05878 7.75718 9.09532 7.81382 9.14192 7.86158C9.18851 7.90934 9.24421 7.94729 9.3057 7.97321C9.3672 7.99913 9.43327 8.01246 9.50001 8.01246C9.56675 8.01246 9.63282 7.99913 9.69431 7.97321C9.75581 7.94729 9.81151 7.90934 9.8581 7.86158C9.9047 7.81382 9.94124 7.75718 9.96562 7.69507C9.98999 7.63297 10.0017 7.56663 10 7.49994C10 6.61694 9.90641 5.77996 9.75978 4.99994H12.6465C13.0633 6.17707 13.1245 7.48315 12.7402 8.74604C12.7187 8.80953 12.7102 8.8767 12.7152 8.94355C12.7202 9.01039 12.7386 9.07554 12.7693 9.13514C12.8 9.19473 12.8424 9.24752 12.8939 9.29041C12.9455 9.3333 13.0051 9.36544 13.0693 9.38483C13.1335 9.40422 13.2009 9.41051 13.2676 9.40333C13.3343 9.39614 13.3988 9.37559 13.4574 9.34296C13.516 9.31034 13.5674 9.26627 13.6086 9.21338C13.6498 9.16049 13.68 9.09987 13.6972 9.0351C14.6302 5.96893 13.356 2.65719 10.6094 1.00385C9.5299 0.35407 8.32969 0.0346028 7.13276 0.0116628C7.08497 -0.000735316 7.03561 -0.00601732 6.98628 -0.00396219C6.98041 -0.00406538 6.97456 -0.00406538 6.9687 -0.00396219H6.96876ZM6.99607 1.1269C7.30677 1.43618 7.78951 2.10338 8.16209 3.02729C8.28285 3.32676 8.39588 3.65401 8.49803 3.99994H5.41404C5.53702 3.57299 5.6736 3.17004 5.83006 2.82416C6.20044 2.00534 6.653 1.43258 6.99607 1.1269ZM8.33396 1.15809C8.94165 1.29728 9.53674 1.52397 10.0937 1.85926C10.9887 2.39798 11.7 3.14213 12.1953 3.99988H9.52732C9.39754 3.5212 9.25472 3.06308 9.08982 2.65418C8.85434 2.07022 8.60338 1.57491 8.33396 1.15809ZM5.62888 1.17371C5.37909 1.52666 5.13686 1.93 4.91795 2.41395C4.70757 2.87905 4.52941 3.41974 4.37888 3.99988H1.82029C2.08074 3.55098 2.38323 3.12165 2.7656 2.74207C3.57636 1.93723 4.57502 1.42064 5.62888 1.17371ZM1.36131 4.98035C1.40702 4.99354 1.45438 5.00012 1.50196 4.99994H4.17188C4.0701 5.62221 4.00001 6.28011 4.00001 6.99994C4.00001 7.71745 4.0707 8.3753 4.17188 8.99994H1.50196C1.45224 9.00043 1.40287 9.00829 1.35548 9.02332C0.879818 7.70113 0.89722 6.27557 1.36149 4.98035H1.36131ZM1.8047 9.99994H4.37696C4.52807 10.5905 4.70602 11.1407 4.91798 11.6132C5.12996 12.0858 5.36206 12.4797 5.60352 12.8261C4.06365 12.4583 2.68584 11.4967 1.83399 10.0605C1.82239 10.0409 1.8161 10.0196 1.8047 9.99988V9.99994Z" fill="white"/>
</g>
<path d="M9.48387 8.99905C9.13417 9.00553 8.89899 9.35982 9.0288 9.6846L11.0288 14.6846C11.2124 15.1474 11.8858 15.0868 11.9839 14.5987L12.4233 12.4248L14.5913 11.9893C15.08 11.8925 15.1421 11.2186 14.6792 11.0342L9.67919 9.03421C9.61708 9.00955 9.55067 8.9976 9.48387 8.99905Z" fill="white"/>
</svg>
