<svg width="16" height="16" viewBox="0 0 16 16" fill="none" xmlns="http://www.w3.org/2000/svg">
<path d="M10.5 0C8.3603 0 6.69272 1.4725 6.16992 3.2441C5.52022 2.4964 4.6594 2 3.5 2C1.5729 2 0 3.5729 0 5.5C0 7.427 1.5729 9 3.5 9H10.5C12.9794 9 15 6.9793 15 4.5C15 2.0206 12.9794 0 10.5 0ZM10.5 3C11.3225 3 12 3.6774 12 4.5C12 5.3225 11.3225 6 10.5 6C9.6775 6 9 5.3225 9 4.5C9 3.6774 9.6775 3 10.5 3ZM3.5 4C4.3225 4 5 4.6774 5 5.5C5 6.3225 4.3225 7 3.5 7C2.6775 7 2 6.3225 2 5.5C2 4.6774 2.6775 4 3.5 4ZM10.5 4C10.2179 4 10 4.2179 10 4.5C10 4.782 10.2179 5 10.5 5C10.7821 5 11 4.782 11 4.5C11 4.2179 10.7821 4 10.5 4ZM3.5 5C3.2179 5 3 5.2179 3 5.5C3 5.782 3.2179 6 3.5 6C3.7821 6 4 5.782 4 5.5C4 5.2179 3.7821 5 3.5 5ZM4.5 10C4.2239 10 4 10.2239 4 10.5V11.5V12H3V11.5C3.004 11.2177 2.77445 10.9878 2.49219 10.9922C2.21604 10.9922 1.99568 11.2238 2 11.5V12.5V13.5C2.009 14.1573 2.9907 14.1573 3 13.5V13H4V13.5V14.5C4 14.6326 4.053 14.7597 4.14648 14.8535L5.14648 15.8535C5.24048 15.9475 5.3674 16 5.5 16H10.5C10.7761 16 11 15.7761 11 15.5V10.5C11 10.2239 10.7761 10 10.5 10H4.5ZM15.4844 11C15.3973 11 15.3125 11.028 15.2383 11.074L11.9883 13.074C11.6711 13.2693 11.6711 13.7303 11.9883 13.9256L15.2383 15.9256C15.5713 16.1301 15.9996 15.8906 16 15.4998V11.4998C16.0001 11.2175 15.7666 10.991 15.4844 10.9998V11Z" fill="white"/>
</svg>
