<svg width="14" height="14" viewBox="0 0 14 14" fill="none" xmlns="http://www.w3.org/2000/svg">
<path fill-rule="evenodd" clip-rule="evenodd" d="M4.5 0C4.3674 1.32584e-05 4.24022 0.0527191 4.14645 0.146484C4.05269 0.24025 4.00001 0.367396 4 0.5V9.5C4.00001 9.6326 4.05269 9.75975 4.14645 9.85352C4.24022 9.94728 4.3674 9.99999 4.5 10H13.5C13.6326 9.99999 13.7598 9.94728 13.8535 9.85352C13.9473 9.75975 14 9.6326 14 9.5V0.5C14 0.367396 13.9473 0.24025 13.8535 0.146484C13.7598 0.0527191 13.6326 1.32584e-05 13.5 0H4.5ZM5 1H13V9H5V1Z" fill="white"/>
<path opacity="0.6" fill-rule="evenodd" clip-rule="evenodd" d="M2.49219 1.99219C2.42653 1.99321 2.36172 2.00719 2.30145 2.03326C2.24118 2.05934 2.18663 2.09701 2.14093 2.14417C2.09523 2.19132 2.05924 2.24699 2.03506 2.30804C2.01089 2.3691 1.99897 2.43434 2 2.5V11.5C2.00001 11.6326 2.05269 11.7598 2.14645 11.8535C2.24022 11.9473 2.3674 12 2.5 12H11.5C11.5663 12.0009 11.632 11.9887 11.6935 11.964C11.755 11.9393 11.811 11.9026 11.8582 11.8561C11.9053 11.8096 11.9428 11.7541 11.9684 11.693C11.994 11.6319 12.0071 11.5663 12.0071 11.5C12.0071 11.4337 11.994 11.3681 11.9684 11.307C11.9428 11.2459 11.9053 11.1904 11.8582 11.1439C11.811 11.0974 11.755 11.0607 11.6935 11.036C11.632 11.0113 11.5663 10.9991 11.5 11H3V2.5C3.00105 2.43302 2.98862 2.36653 2.96347 2.30444C2.93832 2.24236 2.90097 2.18598 2.85361 2.13861C2.80624 2.09125 2.74983 2.05384 2.68774 2.02869C2.62566 2.00354 2.55916 1.99114 2.49219 1.99219ZM0.492188 3.99219C0.426526 3.99321 0.361724 4.00719 0.301453 4.03326C0.241182 4.05934 0.186635 4.09701 0.14093 4.14417C0.095226 4.19132 0.0592441 4.24699 0.0350648 4.30804C0.0108856 4.3691 -0.00102692 4.43434 1.49674e-07 4.5V13.5C1.34081e-05 13.6326 0.0526887 13.7598 0.146454 13.8535C0.240219 13.9473 0.367396 14 0.5 14H9.5C9.56626 14.0009 9.63203 13.9887 9.69351 13.964C9.755 13.9393 9.81097 13.9026 9.85815 13.8561C9.90534 13.8096 9.94281 13.7541 9.96838 13.693C9.99396 13.6319 10.0071 13.5663 10.0071 13.5C10.0071 13.4337 9.99396 13.3681 9.96838 13.307C9.94281 13.2459 9.90534 13.1904 9.85815 13.1439C9.81097 13.0974 9.755 13.0607 9.69351 13.036C9.63203 13.0113 9.56626 12.9991 9.5 13H1V4.5C1.00105 4.43302 0.98862 4.36653 0.963471 4.30444C0.938322 4.24236 0.900972 4.18598 0.853607 4.13861C0.806243 4.09125 0.749828 4.05384 0.687744 4.02869C0.625661 4.00354 0.559163 3.99114 0.492188 3.99219Z" fill="white"/>
<path fill-rule="evenodd" clip-rule="evenodd" d="M13.4844 3.38809e-06C13.3572 0.00400339 13.2364 0.0564078 13.1465 0.146488L4.14649 9.14649C3.8317 9.46149 4.05469 9.99983 4.50001 10H13.5C13.7761 9.99997 14 9.77613 14 9.5V0.500003C14.0001 0.217653 13.7666 -0.00878661 13.4844 3.38809e-06Z" fill="white"/>
</svg>
