<svg width="12" height="8" viewBox="0 0 12 8" fill="none" xmlns="http://www.w3.org/2000/svg">
<path d="M9.98049 0.990242C9.72069 0.997984 9.47411 1.10656 9.29299 1.29298L5.00002 5.58595L2.70705 3.29298C2.61491 3.19699 2.50454 3.12037 2.38241 3.06757C2.26028 3.01478 2.12884 2.9869 1.99579 2.98554C1.86275 2.98418 1.73077 3.00935 1.60758 3.05964C1.4844 3.10993 1.37249 3.18431 1.2784 3.27839C1.18432 3.37247 1.10996 3.48437 1.05967 3.60755C1.00938 3.73074 0.984167 3.86275 0.985526 3.9958C0.986884 4.12884 1.01478 4.26026 1.06757 4.38239C1.12037 4.50452 1.19701 4.6149 1.29299 4.70704L4.29299 7.70704C4.48053 7.8945 4.73485 7.99982 5.00002 7.99982C5.26519 7.99982 5.51951 7.8945 5.70705 7.70704L10.7071 2.70704C10.8516 2.56658 10.9503 2.38576 10.9902 2.18824C11.0302 1.99072 11.0095 1.78569 10.931 1.60011C10.8524 1.41452 10.7197 1.25703 10.5501 1.1482C10.3805 1.03937 10.1819 0.984301 9.98049 0.990242V0.990242Z" fill="white"/>
</svg>
