<svg width="14" height="14" viewBox="0 0 14 14" xmlns="http://www.w3.org/2000/svg">
<path fill-rule="evenodd" clip-rule="evenodd" d="M7 0C3.13992 0 0 3.13991 0 7C0 10.8601 3.13992 14 7 14C10.8601 14 14 10.8601 14 7C14 3.13991 10.8601 0 7 0ZM9.99023 2.98633C10.1917 2.98158 10.3898 3.0378 10.5588 3.14758C10.7277 3.25736 10.8595 3.41558 10.937 3.60156C11.0145 3.78755 11.034 3.99263 10.993 4.18988C10.9519 4.38714 10.8523 4.56738 10.707 4.70703L8.41406 7L10.707 9.29297C10.803 9.38511 10.8796 9.49548 10.9324 9.61761C10.9852 9.73975 11.0131 9.87117 11.0145 10.0042C11.0158 10.1373 10.9906 10.2693 10.9403 10.3925C10.89 10.5156 10.8157 10.6275 10.7216 10.7216C10.6275 10.8157 10.5156 10.89 10.3924 10.9403C10.2692 10.9906 10.1373 11.0158 10.0042 11.0145C9.87117 11.0131 9.73974 10.9852 9.61761 10.9324C9.49548 10.8796 9.38511 10.803 9.29297 10.707L7 8.41406L4.70703 10.707C4.61489 10.803 4.50452 10.8796 4.38239 10.9324C4.26026 10.9852 4.12882 11.0131 3.99577 11.0145C3.86273 11.0158 3.73076 10.9906 3.60757 10.9403C3.48439 10.89 3.37249 10.8157 3.2784 10.7216C3.18432 10.6275 3.10996 10.5156 3.05967 10.3925C3.00938 10.2693 2.98418 10.1373 2.98553 10.0042C2.98689 9.87117 3.01478 9.73975 3.06757 9.61761C3.12036 9.49548 3.19699 9.38511 3.29297 9.29297L5.58594 7L3.29297 4.70703C3.15041 4.56828 3.05246 4.3902 3.01166 4.1955C2.97085 4.00079 2.98904 3.79833 3.0639 3.61401C3.13875 3.4297 3.26688 3.27188 3.43189 3.16077C3.5969 3.04965 3.7913 2.99029 3.99023 2.99023C4.12388 2.99024 4.25617 3.01703 4.37928 3.06903C4.5024 3.12103 4.61384 3.19717 4.70703 3.29297L7 5.58594L9.29297 3.29297C9.47584 3.10278 9.72646 2.99256 9.99023 2.98633Z"/>
</svg>
