<svg width="14" height="14" viewBox="0 0 14 14" fill="none" xmlns="http://www.w3.org/2000/svg">
<path d="M7.50001 0C7.22388 3e-05 7.00004 0.22387 7.00001 0.5V5.48242V13.5C7.00004 13.7761 7.22388 14 7.50001 14H9.50001C9.77614 14 9.99998 13.7761 10 13.5V0.5C9.99998 0.22387 9.77614 3e-05 9.50001 0H7.50001ZM7.00001 5.48242C6.99301 5.29917 6.88691 5.13428 6.72267 5.05273L4.72267 4.05273C4.47563 3.93001 4.17589 4.03053 4.05275 4.27734L0.0527474 12.2773C-0.0699726 12.5244 0.0305467 12.8241 0.277357 12.9473L2.27736 13.9473C2.5244 14.07 2.82414 13.9695 2.94728 13.7227L6.94728 5.72266C6.98458 5.64826 7.00268 5.56564 6.99998 5.48242H7.00001ZM8.00001 1H9.00001V13H8.00001V1ZM11.5 2C11.2239 2.00003 11 2.22387 11 2.5V13.5C11 13.7761 11.2239 14 11.5 14H13.5C13.7761 14 14 13.7761 14 13.5V2.5C14 2.22387 13.7761 2.00003 13.5 2H11.5Z" fill="white"/>
</svg>
