<svg width="14" height="14" viewBox="0 0 14 14" fill="none" xmlns="http://www.w3.org/2000/svg">
<path d="M6 0L5.84375 1.90625C5.22065 2.04852 4.76698 2.1577 4.25 2.5L2.5 1L1 2.5L2.5 4.25C2.15771 4.76699 2.04852 5.22065 1.90625 5.84375L0 6V7V8L1.90625 8.15625C2.04852 8.77935 2.1577 9.23302 2.5 9.75L1 11.5L2.5 13L4.25 11.5C4.76699 11.8423 5.22065 11.9515 5.84375 12.0938L6 14H7H8L8.15625 12.0938C8.77935 11.9515 9.23302 11.8423 9.75 11.5L11.5 13L13 11.5L11.5 9.75C11.8423 9.23301 11.9515 8.77935 12.0938 8.15625L14 8V7V6L12.0938 5.84375C11.9515 5.22065 11.8423 4.76698 11.5 4.25L13 2.5L11.5 1L9.75 2.5C9.23301 2.15771 8.77935 2.04852 8.15625 1.90625L8 0H7H6ZM7 5C8.11641 5 9 5.88359 9 7C9 8.11641 8.11641 9 7 9C5.88359 9 5 8.11641 5 7C5 5.88359 5.88359 5 7 5Z" fill="white"/>
</svg>
