<svg width="14" height="14" viewBox="0 0 14 14" fill="none" xmlns="http://www.w3.org/2000/svg">
<path d="M0.499989 0C0.223858 3e-05 1.65561e-05 0.22387 -1.14441e-05 0.5L-0.0078125 11C-0.0078125 12.5167 1.21149 14 2.97656 14C4.74164 14 5.99219 12.525 5.99219 11L5.99999 0.5C5.99996 0.22387 5.77612 3e-05 5.49999 0H0.499989ZM2.99999 10C3.54635 10 3.99999 10.4536 3.99999 11C3.99999 11.5464 3.54635 12 2.99999 12C2.45363 12 1.99999 11.5464 1.99999 11C1.99999 10.4536 2.45363 10 2.99999 10Z" fill="white"/>
<path opacity="0.5" d="M11.4922 8C11.3596 8.00002 11.2324 8.0527 11.1386 8.14648L6.38864 12.8965C6.29487 12.9903 6.24218 13.1174 6.24216 13.25V13.5C6.24218 13.7761 6.46603 14 6.74216 14H13.5C13.7761 14 13.9999 13.7761 14 13.5V8.5C13.9999 8.22387 13.7761 8.00003 13.5 8H11.4922Z" fill="white"/>
<path opacity="0.75" d="M9.4863 0.999972C9.35573 1.00197 9.23096 1.05408 9.13864 1.14646L7.13864 3.14646C7.04487 3.24026 6.99218 3.36737 6.99216 3.49997V9.49997C6.99233 9.94529 7.53067 10.1683 7.84567 9.85349L12.8457 4.85349C13.0409 4.65822 13.0409 4.34173 12.8457 4.14646L9.84567 1.14646C9.75048 1.05124 9.62092 0.998432 9.4863 0.999972Z" fill="white"/>
</svg>
