<svg width="16" height="16" viewBox="0 0 16 16" fill="none" xmlns="http://www.w3.org/2000/svg">
<path d="M11.8635 4.14683C11.9557 4.24194 12.0064 4.36975 12.0044 4.50219C12.0025 4.63463 11.9481 4.76088 11.8531 4.85325L8.70638 8.00001L11.8531 11.1468C11.9031 11.1923 11.9433 11.2475 11.9714 11.3091C11.9994 11.3706 12.0146 11.4372 12.0162 11.5048C12.0178 11.5724 12.0056 11.6396 11.9805 11.7023C11.9553 11.7651 11.9177 11.8221 11.8699 11.8699C11.8221 11.9177 11.7651 11.9554 11.7023 11.9805C11.6395 12.0057 11.5723 12.0178 11.5047 12.0162C11.4371 12.0147 11.3706 11.9994 11.309 11.9714C11.2475 11.9434 11.1923 11.9032 11.1467 11.8532L7.99997 8.70643L4.8532 11.8532C4.80765 11.9032 4.75244 11.9434 4.69091 11.9714C4.62937 11.9994 4.56282 12.0147 4.49522 12.0163C4.42762 12.0178 4.3604 12.0057 4.29764 11.9805C4.23488 11.9554 4.17786 11.9177 4.13005 11.8699C4.08224 11.8221 4.04461 11.7651 4.01946 11.7023C3.99431 11.6396 3.98216 11.5724 3.98373 11.5048C3.98529 11.4372 4.00055 11.3706 4.02858 11.3091C4.0566 11.2475 4.09682 11.1923 4.14679 11.1468L7.29355 8.00001L4.14679 4.85325C4.09682 4.8077 4.05659 4.75249 4.02857 4.69096C4.00054 4.62943 3.9853 4.56286 3.98374 4.49526C3.98217 4.42766 3.99432 4.36044 4.01947 4.29768C4.04462 4.23492 4.08224 4.17791 4.13005 4.1301C4.17786 4.08229 4.23487 4.04467 4.29763 4.01952C4.3604 3.99437 4.42762 3.98222 4.49521 3.98378C4.56281 3.98535 4.62938 4.00059 4.69091 4.02861C4.75245 4.05664 4.80765 4.09686 4.8532 4.14683L7.99997 7.2936L11.1467 4.14683C11.1933 4.09895 11.249 4.06088 11.3106 4.03489C11.3722 4.0089 11.4383 3.99551 11.5051 3.99551C11.5719 3.99551 11.6381 4.0089 11.6996 4.03489C11.7612 4.06089 11.8169 4.09894 11.8635 4.14683Z" fill="white"/>
</svg>
