<svg width="14" height="13" viewBox="0 0 14 13" fill="none" xmlns="http://www.w3.org/2000/svg">
<path opacity="0.6" d="M1.5 0C0.67765 0 0 0.67765 0 1.5V7.5C0 8.14672 0.42101 8.69773 1 8.90625V7.5V4.5V1.5C1 1.21436 1.21436 1 1.5 1H10.5C10.7856 1 11 1.21436 11 1.5V3H12V1.5C12 0.67765 11.3224 0 10.5 0H1.5Z" fill="white"/>
<path d="M3.5 4C2.67765 4 2 4.67765 2 5.5V11.5C2 12.3224 2.67765 13 3.5 13H12.5C13.3224 13 14 12.3224 14 11.5V5.5C14 4.67765 13.3224 4 12.5 4H3.5ZM5.50391 6C5.69211 6.002 5.86347 6.10882 5.94727 6.27734L7.94727 10.2773C8.11244 10.6096 7.87097 10.9996 7.5 11H3.5C3.12903 10.9996 2.88756 10.6096 3.05273 10.2773L5.05273 6.27734C5.13783 6.1063 5.31289 5.999 5.50391 6ZM9.5 6H12.5C12.5663 5.99906 12.632 6.0113 12.6935 6.03601C12.755 6.06072 12.811 6.0974 12.8582 6.14392C12.9053 6.19044 12.9428 6.24588 12.9684 6.30701C12.994 6.36814 13.0071 6.43374 13.0071 6.5C13.0071 6.56626 12.994 6.63186 12.9684 6.69299C12.9428 6.75412 12.9053 6.80956 12.8582 6.85608C12.811 6.9026 12.755 6.93928 12.6935 6.96399C12.632 6.9887 12.5663 7.00094 12.5 7H9.5C9.43374 7.00094 9.36796 6.9887 9.30647 6.96399C9.24499 6.93928 9.18903 6.9026 9.14185 6.85608C9.09466 6.80956 9.05719 6.75412 9.03162 6.69299C9.00604 6.63186 8.99287 6.56626 8.99287 6.5C8.99287 6.43374 9.00604 6.36814 9.03162 6.30701C9.05719 6.24588 9.09466 6.19044 9.14185 6.14392C9.18903 6.0974 9.24499 6.06072 9.30647 6.03601C9.36796 6.0113 9.43374 5.99906 9.5 6ZM9.5 8H12.5C12.5663 7.99906 12.632 8.0113 12.6935 8.03601C12.755 8.06072 12.811 8.0974 12.8582 8.14392C12.9053 8.19044 12.9428 8.24588 12.9684 8.30701C12.994 8.36814 13.0071 8.43374 13.0071 8.5C13.0071 8.56626 12.994 8.63186 12.9684 8.69299C12.9428 8.75412 12.9053 8.80956 12.8582 8.85608C12.811 8.9026 12.755 8.93928 12.6935 8.96399C12.632 8.9887 12.5663 9.00094 12.5 9H9.5C9.43374 9.00094 9.36796 8.9887 9.30647 8.96399C9.24499 8.93928 9.18903 8.9026 9.14185 8.85608C9.09466 8.80956 9.05719 8.75412 9.03162 8.69299C9.00604 8.63186 8.99287 8.56626 8.99287 8.5C8.99287 8.43374 9.00604 8.36814 9.03162 8.30701C9.05719 8.24588 9.09466 8.19044 9.14185 8.14392C9.18903 8.0974 9.24499 8.06072 9.30647 8.03601C9.36796 8.0113 9.43374 7.99906 9.5 8V8ZM9.5 10H11.5C11.5663 9.99906 11.632 10.0113 11.6935 10.036C11.755 10.0607 11.811 10.0974 11.8582 10.1439C11.9053 10.1904 11.9428 10.2459 11.9684 10.307C11.994 10.3681 12.0071 10.4337 12.0071 10.5C12.0071 10.5663 11.994 10.6319 11.9684 10.693C11.9428 10.7541 11.9053 10.8096 11.8582 10.8561C11.811 10.9026 11.755 10.9393 11.6935 10.964C11.632 10.9887 11.5663 11.0009 11.5 11H9.5C9.43374 11.0009 9.36796 10.9887 9.30647 10.964C9.24499 10.9393 9.18903 10.9026 9.14185 10.8561C9.09466 10.8096 9.05719 10.7541 9.03162 10.693C9.00604 10.6319 8.99287 10.5663 8.99287 10.5C8.99287 10.4337 9.00604 10.3681 9.03162 10.307C9.05719 10.2459 9.09466 10.1904 9.14185 10.1439C9.18903 10.0974 9.24499 10.0607 9.30647 10.036C9.36796 10.0113 9.43374 9.99906 9.5 10Z" fill="white"/>
</svg>
