<svg width="13" height="11" viewBox="0 0 13 11" fill="none" xmlns="http://www.w3.org/2000/svg">
<path d="M2 2.00018H11V7.00018H2V2.00018ZM0.5 0.000183105C0.22387 0.000213105 3e-05 0.224053 0 0.500183V8.50018C3e-05 8.77631 0.22387 9.00015 0.5 9.00018H6V10.0002H3.5C2.82384 9.99018 2.82384 11.0097 3.5 11.0002H9.5C10.1573 10.9912 10.1573 10.0095 9.5 10.0002H7V9.00018H12.5C12.7761 9.00015 13 8.77631 13 8.50018V0.500183C13 0.224053 12.7761 0.000213105 12.5 0.000183105H0.5ZM1 1.00018H12V8.00018H1V1.00018Z" fill="white"/>
</svg>
