<svg width="14" height="16" viewBox="0 0 14 16" fill="none" xmlns="http://www.w3.org/2000/svg">
<path d="M2.57617 0.980473C2.49629 0.978762 2.41701 0.99448 2.34381 1.02652C2.27062 1.05857 2.20527 1.10616 2.15234 1.16602C1.68577 1.67989 0.95007 2.29697 0.94922 3.3086C0.94822 4.4933 1.80493 5.42271 2.89258 6.22657C3.98023 7.03043 5.37194 7.75356 6.74024 8.48438C7.18167 8.72015 7.62266 8.95493 8.04883 9.1875C9.16199 9.79496 10.1839 10.4019 10.8926 11.0059C11.6012 11.6098 11.9515 12.1649 11.9512 12.6895C11.9508 13.1703 11.6235 13.6959 11.1563 14.0703C11.0998 14.1155 11.0529 14.1713 11.018 14.2346C10.9831 14.2979 10.9611 14.3674 10.9531 14.4392C10.9451 14.5111 10.9514 14.5837 10.9715 14.6531C10.9916 14.7225 11.0252 14.7873 11.0703 14.8438C11.1155 14.9002 11.1713 14.9472 11.2346 14.982C11.2979 15.0169 11.3674 15.0389 11.4392 15.0469C11.511 15.0549 11.5837 15.0486 11.6531 15.0285C11.7225 15.0084 11.7873 14.9748 11.8438 14.9297C12.4967 14.4064 13.05 13.6279 13.0508 12.6914C13.0514 11.6972 12.4305 10.8711 11.6055 10.168C10.7805 9.46482 9.70734 8.83906 8.57422 8.22071C8.14039 7.98396 7.69946 7.75048 7.25977 7.51563C5.88611 6.78196 4.52499 6.0647 3.54688 5.3418C2.56876 4.61889 2.04814 3.93533 2.04883 3.31055C2.0492 2.87148 2.44625 2.47956 2.9668 1.90625C3.03943 1.82864 3.08803 1.73164 3.10669 1.62699C3.12535 1.52234 3.11329 1.41453 3.07196 1.31659C3.03064 1.21865 2.96183 1.13479 2.87384 1.07514C2.78585 1.01549 2.68245 0.982599 2.57617 0.980473V0.980473Z" fill="white"/>
<path opacity="0.6" d="M11.4551 0.945326C11.3457 0.952976 11.241 0.993173 11.1546 1.06074C11.0682 1.12831 11.004 1.22018 10.9702 1.32454C10.9363 1.42889 10.9345 1.54094 10.9649 1.64635C10.9953 1.75175 11.0565 1.84567 11.1406 1.91603C11.5818 2.29847 11.9531 2.94954 11.9531 3.50001C11.9511 4.06636 11.6995 4.45244 11.2109 4.85939C10.7218 5.26678 10.0039 5.63283 9.25391 6.00783C9.18927 6.04014 9.13164 6.08489 9.08429 6.13948C9.03694 6.19407 9.00082 6.25745 8.97797 6.326C8.95511 6.39456 8.94599 6.46693 8.95111 6.53902C8.95623 6.6111 8.9755 6.68147 9.00781 6.74611C9.04013 6.81074 9.08487 6.86838 9.13947 6.91572C9.19406 6.96307 9.25743 6.9992 9.32599 7.02205C9.39454 7.0449 9.46692 7.05403 9.539 7.0489C9.61108 7.04378 9.68146 7.02452 9.74609 6.9922C10.4961 6.6172 11.2774 6.23347 11.9141 5.70314C12.5507 5.17282 13.0509 4.43349 13.0527 3.50001C13.0527 2.51334 12.5099 1.6479 11.8594 1.084C11.8046 1.03508 11.7407 0.997584 11.6713 0.973769C11.6018 0.949953 11.5283 0.940294 11.4551 0.945326V0.945326ZM4.50195 8.94728C4.41567 8.94771 4.3307 8.96845 4.25391 9.0078C3.50391 9.3828 2.72261 9.76653 2.08594 10.2969C1.44926 10.8272 0.949126 11.5665 0.947266 12.5C0.947266 13.4884 1.4833 14.3532 2.14062 14.918C2.19551 14.9651 2.25917 15.0011 2.32794 15.0237C2.39671 15.0463 2.46926 15.0551 2.54144 15.0496C2.61363 15.0442 2.68399 15.0246 2.7486 14.992C2.8132 14.9593 2.87077 14.9142 2.91797 14.8594C2.96516 14.8045 3.00108 14.7408 3.02368 14.672C3.04628 14.6033 3.05512 14.5307 3.04968 14.4585C3.04424 14.3864 3.02465 14.316 2.992 14.2514C2.95935 14.1868 2.91426 14.1292 2.85938 14.082C2.41166 13.6974 2.04688 13.0623 2.04688 12.5C2.04888 11.9336 2.30051 11.5476 2.78906 11.1406C3.27815 10.7332 3.99609 10.3672 4.74609 9.99217C4.85839 9.93769 4.9488 9.84661 5.0025 9.73393C5.0562 9.62126 5.07002 9.49369 5.04163 9.37215C5.01323 9.2506 4.94432 9.14232 4.84625 9.06511C4.74818 8.98789 4.62677 8.94634 4.50195 8.94725V8.94728Z" fill="white"/>
<path opacity="0.5" d="M3.5 12C3.43374 11.9991 3.36794 12.0113 3.30646 12.036C3.24497 12.0607 3.18903 12.0974 3.14185 12.1439C3.09466 12.1904 3.05719 12.2459 3.03162 12.307C3.00604 12.3681 2.99286 12.4337 2.99286 12.5C2.99286 12.5663 3.00604 12.6319 3.03162 12.693C3.05719 12.7541 3.09466 12.8095 3.14185 12.8561C3.18903 12.9026 3.24497 12.9393 3.30646 12.964C3.36794 12.9887 3.43374 13.0009 3.5 13H5.5C5.61983 13.0015 5.73623 12.96 5.828 12.8829C5.91977 12.8058 5.98081 12.6984 6 12.5801C6.01919 12.6984 6.08023 12.8058 6.172 12.8829C6.26377 12.96 6.38017 13.0015 6.5 13H10.5C10.5663 13.0009 10.6321 12.9887 10.6935 12.964C10.755 12.9393 10.811 12.9026 10.8582 12.8561C10.9053 12.8095 10.9428 12.7541 10.9684 12.693C10.994 12.6319 11.0071 12.5663 11.0071 12.5C11.0071 12.4337 10.994 12.3681 10.9684 12.307C10.9428 12.2459 10.9053 12.1904 10.8582 12.1439C10.811 12.0974 10.755 12.0607 10.6935 12.036C10.6321 12.0113 10.5663 11.9991 10.5 12H6.5C6.38017 11.9985 6.26377 12.04 6.172 12.1171C6.08023 12.1942 6.01919 12.3016 6 12.4199C5.98081 12.3016 5.91977 12.1942 5.828 12.1171C5.73623 12.04 5.61983 11.9985 5.5 12H3.5ZM3.5 2.99999C3.43374 2.99905 3.36794 3.01129 3.30646 3.036C3.24497 3.06071 3.18903 3.09739 3.14185 3.14391C3.09466 3.19043 3.05719 3.24587 3.03162 3.307C3.00604 3.36812 2.99286 3.43373 2.99286 3.49999C2.99286 3.56625 3.00604 3.63185 3.03162 3.69298C3.05719 3.75411 3.09466 3.80955 3.14185 3.85607C3.18903 3.90259 3.24497 3.93927 3.30646 3.96398C3.36794 3.98869 3.43374 4.00093 3.5 3.99999H7.5C7.61983 4.00152 7.73623 3.95996 7.828 3.88289C7.91977 3.80582 7.98081 3.69836 8 3.58007C8.01919 3.69836 8.08023 3.80582 8.172 3.88289C8.26377 3.95996 8.38017 4.00152 8.5 3.99999H10.5C10.5663 4.00093 10.6321 3.98869 10.6935 3.96398C10.755 3.93927 10.811 3.90259 10.8582 3.85607C10.9053 3.80955 10.9428 3.75411 10.9684 3.69298C10.994 3.63185 11.0071 3.56625 11.0071 3.49999C11.0071 3.43373 10.994 3.36812 10.9684 3.307C10.9428 3.24587 10.9053 3.19043 10.8582 3.14391C10.811 3.09739 10.755 3.06071 10.6935 3.036C10.6321 3.01129 10.5663 2.99905 10.5 2.99999H8.5C8.38017 2.99845 8.26377 3.04001 8.172 3.11708C8.08023 3.19416 8.01919 3.30162 8 3.41991C7.98081 3.30162 7.91977 3.19416 7.828 3.11708C7.73623 3.04001 7.61983 2.99845 7.5 2.99999H3.5Z" fill="white"/>
</svg>
