<svg width="14" height="14" viewBox="0 0 14 14" fill="none" xmlns="http://www.w3.org/2000/svg">
<path d="M12.1321 2.00866C11.8051 1.97894 11.4475 2.11394 11.1486 2.4129L10.8775 2.72371C10.7488 2.85242 10.7488 3.06103 10.8775 3.18974L12.8549 5.16717C12.9836 5.29583 13.1922 5.29583 13.3209 5.16717L13.592 4.85637C13.891 4.5574 14.026 4.19982 13.9963 3.8728C13.9666 3.54578 13.7957 3.27567 13.592 3.07205L12.9329 2.4129C12.7293 2.20928 12.4592 2.0384 12.1321 2.00866ZM9.8934 3.79942C9.80778 3.80074 9.72607 3.83541 9.66553 3.89597L5.56033 8.00063C5.51821 8.04295 5.48842 8.09589 5.47407 8.15383L4.81493 10.7904C4.75535 11.0312 4.97319 11.249 5.21402 11.1895L7.85059 10.5303C7.90853 10.516 7.9615 10.4862 8.00381 10.4441C8.00381 10.4441 12.0766 6.37474 12.109 6.33944C12.2377 6.21073 12.2377 6.00211 12.109 5.8734L10.1316 3.89597C10.0685 3.83289 9.98257 3.79805 9.89338 3.79942H9.8934Z" fill="white"/>
<path opacity="0.6" d="M0 6V13.5C0 13.776 0.224 14 0.5 14H11.5C11.8042 14 12 13.7722 12 13.5V9.5C12 8.84541 11 8.84318 11 9.5V13H1V6H0ZM4.4808 0C4.3298 0.004 4.1878 0.0769986 4.0968 0.196999L0.14682 4.146C-0.16718 4.461 0.055824 5 0.500824 5H4.50082C4.77682 5 5.00082 4.776 5.00082 4.5V1H11.5C12.1851 1 12.1409 0 11.5 0H4.4808Z" fill="white"/>
</svg>
