<svg xmlns="http://www.w3.org/2000/svg" height="48" fill="white" viewBox="0 96 960 960" width="48"><path d="M551 997H409q-18 0-31.5-10T363 958l-15-94q-14-4-31-14t-28-19l-86 41q-15 8-32.5 2T144 851L73 724q-11-15-6-32t18-27l80-59q-1-5-1-14.5v-30q0-8.5 1-15.5l-80-59q-13-11-18-27.5t5-32.5l72-127q10-15 27-20.5t32 1.5l88 40q10-7 27-17t30-14l15-97q1-18 15-28.5t31-10.5h142q17 0 31 10.5t16 28.5l14 96q15 4 31.5 14t27.5 18l86-41q15-7 32.5-1t26.5 21l73 126q10 16 5 33t-18 28l-82 56q1 8 2.5 17t1.5 16q0 7-1.5 15.5T794 607l82 57q13 12 17.5 28.5T889 725l-73 127q-10 17-27 22.5t-32-2.5l-86-41q-11 9-28.5 19.5T613 864l-15 94q-2 19-16 29t-31 10Zm-72-294q53 0 90-37t37-90q0-52-37-89.5T479 449q-54 0-90.5 37.5T352 576q0 53 36.5 90t90.5 37Z"/></svg>