<svg width="16" height="14" viewBox="0 0 16 14" fill="none" xmlns="http://www.w3.org/2000/svg">
<g opacity="0.99">
<path d="M8.49994 0.999775C8.43368 0.998839 8.36794 1.01108 8.30646 1.03579C8.24497 1.06049 8.18897 1.09717 8.14178 1.1437C8.0946 1.19022 8.05713 1.24565 8.03156 1.30678C8.00598 1.36791 7.99286 1.43351 7.99286 1.49978C7.99286 1.56604 8.00598 1.63164 8.03156 1.69277C8.05713 1.7539 8.0946 1.80933 8.14178 1.85585C8.18897 1.90238 8.24497 1.93906 8.30646 1.96376C8.36794 1.98847 8.43368 2.00071 8.49994 1.99978H14.4999C14.5662 2.00071 14.6319 1.98847 14.6934 1.96376C14.7549 1.93906 14.8109 1.90238 14.8581 1.85585C14.9053 1.80933 14.9427 1.7539 14.9683 1.69277C14.9939 1.63164 15.007 1.56604 15.007 1.49978C15.007 1.43351 14.9939 1.36791 14.9683 1.30678C14.9427 1.24565 14.9053 1.19022 14.8581 1.1437C14.8109 1.09717 14.7549 1.06049 14.6934 1.03579C14.6319 1.01108 14.5662 0.998839 14.4999 0.999775H8.49994ZM8.49994 3.99978C8.43368 3.99884 8.36794 4.01108 8.30646 4.03579C8.24497 4.06049 8.18897 4.09717 8.14178 4.1437C8.0946 4.19022 8.05713 4.24565 8.03156 4.30678C8.00598 4.36791 7.99286 4.43351 7.99286 4.49978C7.99286 4.56604 8.00598 4.63164 8.03156 4.69277C8.05713 4.7539 8.0946 4.80933 8.14178 4.85585C8.18897 4.90238 8.24497 4.93906 8.30646 4.96376C8.36794 4.98847 8.43368 5.00071 8.49994 4.99978H14.4999C14.5662 5.00071 14.6319 4.98847 14.6934 4.96376C14.7549 4.93906 14.8109 4.90238 14.8581 4.85585C14.9053 4.80933 14.9427 4.7539 14.9683 4.69277C14.9939 4.63164 15.007 4.56604 15.007 4.49978C15.007 4.43351 14.9939 4.36791 14.9683 4.30678C14.9427 4.24565 14.9053 4.19022 14.8581 4.1437C14.8109 4.09717 14.7549 4.06049 14.6934 4.03579C14.6319 4.01108 14.5662 3.99884 14.4999 3.99978H8.49994ZM8.49994 6.99978C8.43368 6.99884 8.36794 7.01108 8.30646 7.03579C8.24497 7.06049 8.18897 7.09717 8.14178 7.1437C8.0946 7.19022 8.05713 7.24565 8.03156 7.30678C8.00598 7.36791 7.99286 7.43351 7.99286 7.49978C7.99286 7.56604 8.00598 7.63164 8.03156 7.69277C8.05713 7.7539 8.0946 7.80933 8.14178 7.85585C8.18897 7.90238 8.24497 7.93906 8.30646 7.96376C8.36794 7.98847 8.43368 8.00071 8.49994 7.99978H14.4999C14.5662 8.00071 14.6319 7.98847 14.6934 7.96376C14.7549 7.93906 14.8109 7.90238 14.8581 7.85585C14.9053 7.80933 14.9427 7.7539 14.9683 7.69277C14.9939 7.63164 15.007 7.56604 15.007 7.49978C15.007 7.43351 14.9939 7.36791 14.9683 7.30678C14.9427 7.24565 14.9053 7.19022 14.8581 7.1437C14.8109 7.09717 14.7549 7.06049 14.6934 7.03579C14.6319 7.01108 14.5662 6.99884 14.4999 6.99978H8.49994ZM1.49994 9.99977C1.43368 9.99884 1.36794 10.0111 1.30646 10.0358C1.24497 10.0605 1.18897 10.0972 1.14178 10.1437C1.0946 10.1902 1.05713 10.2457 1.03156 10.3068C1.00598 10.3679 0.992859 10.4335 0.992859 10.4998C0.992859 10.566 1.00598 10.6316 1.03156 10.6928C1.05713 10.7539 1.0946 10.8093 1.14178 10.8559C1.18897 10.9024 1.24497 10.9391 1.30646 10.9638C1.36794 10.9885 1.43368 11.0007 1.49994 10.9998H14.4999C14.5662 11.0007 14.6319 10.9885 14.6934 10.9638C14.7549 10.9391 14.8109 10.9024 14.8581 10.8559C14.9053 10.8093 14.9427 10.7539 14.9683 10.6928C14.9939 10.6316 15.007 10.566 15.007 10.4998C15.007 10.4335 14.9939 10.3679 14.9683 10.3068C14.9427 10.2457 14.9053 10.1902 14.8581 10.1437C14.8109 10.0972 14.7549 10.0605 14.6934 10.0358C14.6319 10.0111 14.5662 9.99884 14.4999 9.99977H1.49994ZM1.4859 12.9998C1.41965 12.9988 1.3539 13.0111 1.29242 13.0358C1.23094 13.0605 1.17493 13.0972 1.12775 13.1437C1.08056 13.1902 1.04309 13.2457 1.01752 13.3068C0.991944 13.3679 0.978821 13.4335 0.978821 13.4998C0.978821 13.566 0.991944 13.6316 1.01752 13.6928C1.04309 13.7539 1.08056 13.8093 1.12775 13.8559C1.17493 13.9024 1.23094 13.9391 1.29242 13.9638C1.3539 13.9885 1.41965 14.0007 1.4859 13.9998H14.5308C14.5971 14.0007 14.6628 13.9885 14.7243 13.9638C14.7858 13.9391 14.8418 13.9024 14.889 13.8559C14.9362 13.8093 14.9736 13.7539 14.9992 13.6928C15.0248 13.6316 15.0379 13.566 15.0379 13.4998C15.0379 13.4335 15.0248 13.3679 14.9992 13.3068C14.9736 13.2457 14.9362 13.1902 14.889 13.1437C14.8418 13.0972 14.7858 13.0605 14.7243 13.0358C14.6628 13.0111 14.5971 12.9988 14.5308 12.9998H1.4859Z" fill="white"/>
<path d="M1.49207 7.99979C1.21597 7.99579 0.995579 7.76812 0.999879 7.49197V2.40408C0.999879 1.53746 1.48819 0.740023 2.25769 0.316194C3.02729 -0.107676 3.96671 -0.107676 4.73621 0.316194C5.50571 0.740023 5.99207 1.53746 5.99207 2.40408V7.49197C6.00207 8.16813 4.98247 8.16813 4.99207 7.49197V4.99979H1.99988V7.49197C1.99988 7.77423 1.77437 8.0042 1.49207 7.99979ZM1.99988 3.99979H4.99207V2.40408C4.99207 1.91029 4.71929 1.44954 4.25378 1.19315C3.78828 0.936767 3.20561 0.936767 2.74011 1.19315C2.27461 1.44954 1.99988 1.91029 1.99988 2.40408V3.99979Z" fill="white"/>
</g>
</svg>
