<svg width="14" height="14" viewBox="0 0 14 14" fill="none" xmlns="http://www.w3.org/2000/svg">
<path d="M3.32227 0.0624927C1.61213 0.135263 0 1.54629 0 3.99999C0 5.29325 0.431606 6.55297 1.07227 7.72851C1.23242 8.02163 1.62941 8.07834 1.86523 7.84179L5.5 4.20702L7.14648 5.85351C7.34175 6.0487 7.65825 6.0487 7.85352 5.85351L10.5 3.20702L12.9824 5.68945C13.2599 5.9659 13.733 5.83055 13.8223 5.44921C13.9331 4.97517 14 4.49156 14 3.99999C14 1.54629 12.3879 0.135263 10.6777 0.0624927C9.15634 -0.00220727 7.62453 0.989488 7 2.75976C6.37547 0.989488 4.84366 -0.00224727 3.32227 0.0624927ZM10.4922 5.99999C10.3623 6.00199 10.2383 6.0546 10.1465 6.14648L7.5 8.79296L5.85352 7.14648C5.65825 6.95129 5.34175 6.95129 5.14648 7.14648L2.79883 9.49413C2.61626 9.67607 2.60189 9.96696 2.76562 10.166C3.99773 11.6645 5.38866 12.9581 6.41797 13.873C6.50937 13.9546 6.62751 13.9998 6.75 14H7.25C7.37249 13.9998 7.49064 13.9546 7.58203 13.873C8.99749 12.6148 11.1223 10.6596 12.543 8.38476C12.6667 8.18722 12.6376 7.93039 12.4727 7.76562L10.8535 6.14648C10.7578 6.05078 10.6275 5.99791 10.4922 5.99999Z" fill="white"/>
</svg>
