<svg width="14" height="15" viewBox="0 0 14 15" fill="none" xmlns="http://www.w3.org/2000/svg">
<g opacity="0.99">
<path opacity="0.3" fill-rule="evenodd" clip-rule="evenodd" d="M0.5 13.5H13.5V0.5H0.5V13.5Z" fill="white"/>
<path d="M5.4961 4.99979C5.6871 4.99879 5.86217 5.1061 5.94727 5.27714L8.94728 11.2771C9.11248 11.6094 8.87131 11.9994 8.50001 11.9998H2.50001C2.12901 11.9994 1.88754 11.6094 2.05274 11.2771L5.05274 5.27714C5.13674 5.10861 5.3079 5.00142 5.4961 4.99979Z" fill="white"/>
<path d="M10.5 2.99979C11.3225 2.99979 12 3.67728 12 4.49979C12 5.3223 11.3225 5.99979 10.5 5.99979C9.6775 5.99979 9 5.3223 9 4.49979C9 3.67728 9.6775 2.99979 10.5 2.99979Z" fill="white"/>
<path fill-rule="evenodd" clip-rule="evenodd" d="M13.5 -0.000213623C13.6326 -0.000200365 13.7598 0.0524749 13.8535 0.14624C13.9473 0.240006 14 0.367182 14 0.499786V13.4998C14 13.6324 13.9473 13.7596 13.8535 13.8533C13.7598 13.9471 13.6326 13.9998 13.5 13.9998H0.580078C0.508505 14.0113 0.43529 14.0072 0.365479 13.9876C0.295667 13.9681 0.230931 13.9336 0.175781 13.8865C0.17578 13.8858 0.17578 13.8852 0.175781 13.8845C0.164314 13.8746 0.153344 13.8642 0.142822 13.8533C0.142817 13.852 0.142817 13.8506 0.142822 13.8493C0.131991 13.8387 0.121642 13.8276 0.111816 13.8161C0.111811 13.8148 0.111811 13.8134 0.111816 13.8121C0.0678086 13.7573 0.035778 13.6939 0.0179443 13.6259C0.000110719 13.5579 -0.00314095 13.4869 0.00830078 13.4176V0.499786C0.00831404 0.367182 0.0610198 0.240006 0.154785 0.14624C0.24855 0.0524749 0.375697 -0.000200365 0.508301 -0.000213623H13.5ZM13 0.999786H1V12.9998H13V0.999786Z" fill="white"/>
</g>
</svg>
