<svg width="12" height="15" viewBox="0 0 12 15" fill="none" xmlns="http://www.w3.org/2000/svg">
<path d="M6 0C2.7167 0 0 2.4414 0 5.5C0 7.2056 0.904644 8.64598 2.15234 9.85938L3.14648 10.8535C3.22715 10.9366 3.33417 10.989 3.44922 11.002C3.32059 11.0137 3.20144 11.0748 3.11682 11.1724C3.0322 11.2699 2.98865 11.3965 2.99524 11.5255C3.00183 11.6545 3.05809 11.7759 3.15222 11.8644C3.24635 11.9528 3.37109 12.0014 3.50024 12H8.50024C8.62883 11.9998 8.75233 11.9501 8.84521 11.8612C8.9381 11.7723 8.99323 11.6509 8.99902 11.5225C9.00482 11.394 8.96084 11.2683 8.87634 11.1714C8.79184 11.0745 8.67321 11.0137 8.54517 11.002C8.6623 10.9903 8.77158 10.9378 8.85376 10.8535L9.85193 9.85547C11.0641 8.65697 11.9984 7.20365 11.9984 5.50195C11.9984 2.44335 9.28171 0.00195312 5.99841 0.00195312L6 0ZM6 1C8.7919 1 11 3.0358 11 5.5C11 6.8342 10.2572 8.04883 9.14844 9.14453L8.14844 10.1445C8.08141 10.2098 8.03395 10.2925 8.0116 10.3833C7.98925 10.4741 7.99288 10.5694 8.02197 10.6583C8.05106 10.7472 8.10455 10.8262 8.17627 10.8862C8.24799 10.9463 8.3351 10.985 8.42773 10.998H3.56836C3.66164 10.9863 3.74964 10.9483 3.82239 10.8888C3.89514 10.8292 3.94964 10.7505 3.97961 10.6614C4.00959 10.5723 4.01379 10.4764 3.99182 10.385C3.96985 10.2936 3.92254 10.2103 3.85535 10.1445L2.85535 9.14453C2.85206 9.14115 2.84884 9.13781 2.84546 9.13452C1.70576 8.02632 0.997681 6.8481 0.997681 5.4939C0.997681 3.0297 3.20578 0.993896 5.99768 0.993896L6 1ZM3.5 13C3.43374 12.9991 3.368 13.0113 3.30652 13.036C3.24503 13.0607 3.18903 13.0974 3.14185 13.1439C3.09466 13.1904 3.05719 13.2459 3.03162 13.307C3.00604 13.3681 2.99292 13.4337 2.99292 13.5C2.99292 13.5663 3.00604 13.6319 3.03162 13.693C3.05719 13.7541 3.09466 13.8096 3.14185 13.8561C3.18903 13.9026 3.24503 13.9393 3.30652 13.964C3.368 13.9887 3.43374 14.0009 3.5 14H5V14.5C5.00001 14.6326 5.05272 14.7598 5.14648 14.8535C5.24025 14.9473 5.3674 15 5.5 15H6.5C6.6326 15 6.75975 14.9473 6.85352 14.8535C6.94728 14.7598 6.99999 14.6326 7 14.5V14H8.5C8.56626 14.0009 8.632 13.9887 8.69348 13.964C8.75497 13.9393 8.81097 13.9026 8.85815 13.8561C8.90534 13.8096 8.94281 13.7541 8.96838 13.693C8.99396 13.6319 9.00708 13.5663 9.00708 13.5C9.00708 13.4337 8.99396 13.3681 8.96838 13.307C8.94281 13.2459 8.90534 13.1904 8.85815 13.1439C8.81097 13.0974 8.75497 13.0607 8.69348 13.036C8.632 13.0113 8.56626 12.9991 8.5 13H3.5Z" fill="white"/>
<path opacity="0.6" d="M3.49026 5.00585C3.39343 5.00887 3.2995 5.03996 3.22 5.09533C3.1405 5.1507 3.07879 5.22796 3.04239 5.31774C3.00598 5.40752 2.99644 5.50597 3.01492 5.60107C3.0334 5.69617 3.07913 5.7839 3.14651 5.85351L4.00003 6.70703V8.24999C3.99909 8.31625 4.01133 8.38199 4.03604 8.44348C4.06075 8.50496 4.09743 8.56096 4.14395 8.60815C4.19047 8.65533 4.24591 8.6928 4.30704 8.71838C4.36816 8.74395 4.43377 8.75707 4.50003 8.75707C4.56629 8.75707 4.63189 8.74395 4.69302 8.71838C4.75415 8.6928 4.80959 8.65533 4.85611 8.60815C4.90263 8.56096 4.93931 8.50496 4.96402 8.44348C4.98872 8.38199 5.00097 8.31625 5.00003 8.24999V6.99999H7.00003V8.24999C6.99909 8.31625 7.01133 8.38199 7.03604 8.44348C7.06075 8.50496 7.09743 8.56096 7.14395 8.60815C7.19047 8.65533 7.24591 8.6928 7.30704 8.71838C7.36816 8.74395 7.43377 8.75707 7.50003 8.75707C7.56629 8.75707 7.63189 8.74395 7.69302 8.71838C7.75415 8.6928 7.80959 8.65533 7.85611 8.60815C7.90263 8.56096 7.93931 8.50496 7.96402 8.44348C7.98872 8.38199 8.00097 8.31625 8.00003 8.24999V6.70703L8.85354 5.85351C8.94386 5.75906 8.99356 5.63299 8.99209 5.50231C8.99063 5.37164 8.93814 5.2467 8.84573 5.15429C8.75333 5.06189 8.62838 5.00939 8.49771 5.00793C8.36704 5.00646 8.24097 5.05617 8.14651 5.14648L7.293 5.99999H4.70706L3.85354 5.14648C3.80548 5.09993 3.74859 5.06345 3.68619 5.0393C3.62378 5.01515 3.55715 5.00379 3.49026 5.00585Z" fill="white"/>
</svg>
