<svg width="14" height="14" viewBox="0 0 14 14" fill="none" xmlns="http://www.w3.org/2000/svg">
<path d="M10.9981 -7.62939e-06C10.5298 0.000542371 10.0594 0.107991 9.62697 0.324211L2.78908 3.71874C2.77984 3.72303 2.77072 3.7276 2.76177 3.73244C0.760946 4.88757 -0.30545 7.17584 0.09575 9.45119C0.49696 11.7266 2.28134 13.5109 4.55669 13.9121C5.12553 14.0124 5.69557 14.0222 6.24809 13.9473C7.90564 13.7226 9.408 12.7466 10.2754 11.2442C10.281 11.2346 10.2862 11.2248 10.291 11.2149L13.6758 4.3731C14.2524 3.21994 14.0519 1.79413 13.1289 0.871147C12.5521 0.294287 11.7784 -0.000856594 10.9981 5.34058e-05V-7.62939e-06ZM11.3106 1.02538C11.7252 1.08768 12.1188 1.27505 12.4219 1.57812C13.028 2.18426 13.1691 3.15399 12.7832 3.92577C12.7826 3.92644 12.7819 3.92709 12.7812 3.92776L9.40621 10.7481C8.45691 12.3874 6.59325 13.2562 4.73042 12.9278C2.86569 12.599 1.40883 11.1421 1.08003 9.2774C0.751233 7.41267 1.62199 5.54629 3.26167 4.59966L10.0723 1.2188C10.0729 1.2188 10.0736 1.2188 10.0742 1.2188C10.4601 1.02585 10.8959 0.963134 11.3106 1.02544V1.02538ZM11.0117 1.99609C10.4654 1.99609 10.0117 2.44973 10.0117 2.99609C10.0117 3.54245 10.4654 3.99609 11.0117 3.99609C11.5581 3.99609 12.0117 3.54245 12.0117 2.99609C12.0117 2.44973 11.5581 1.99609 11.0117 1.99609ZM5.51173 4.99609C3.58466 4.99609 2.01174 6.56902 2.01174 8.49609C2.01174 10.4232 3.58466 11.9961 5.51173 11.9961C7.4388 11.9961 9.01173 10.4232 9.01173 8.49609C9.01173 6.56902 7.4388 4.99609 5.51173 4.99609ZM5.51173 6.9707C5.70714 6.97058 5.90066 7.00929 6.08122 7.08462C6.26178 7.15995 6.42586 7.27042 6.56407 7.40972C6.70228 7.54902 6.8119 7.71443 6.8867 7.89648C6.96151 8.07852 7.00002 8.27364 7.00002 8.4707C7.00002 8.66775 6.96151 8.86287 6.8867 9.04491C6.8119 9.22696 6.70228 9.39237 6.56407 9.53167C6.42586 9.67097 6.26178 9.78144 6.08122 9.85677C5.90066 9.9321 5.70714 9.97081 5.51173 9.9707C5.31633 9.97081 5.12281 9.9321 4.94225 9.85677C4.76169 9.78144 4.59764 9.67097 4.45943 9.53167C4.32122 9.39237 4.21157 9.22696 4.13677 9.04491C4.06196 8.86287 4.02345 8.66775 4.02345 8.4707C4.02345 8.27364 4.06196 8.07852 4.13677 7.89648C4.21157 7.71443 4.32122 7.54902 4.45943 7.40972C4.59764 7.27042 4.76169 7.15995 4.94225 7.08462C5.12281 7.00929 5.31633 6.97058 5.51173 6.9707V6.9707Z" fill="white"/>
</svg>
