<svg xmlns="http://www.w3.org/2000/svg" height="48" fill="white" viewBox="0 96 960 960" width="48"><path d="M636.155 898q-37.56 0-64.357-26.706Q545 844.588 545 806V345q0-36.188 26.615-64.094Q598.231 253 636.69 253h55q36.06 0 63.685 27.906T783 345v461q0 38.588-27.643 65.294Q727.715 898 691.155 898h-55Zm-366.5 0q-37.06 0-64.357-26.706Q178 844.588 178 806V345q0-36.188 27.315-64.094Q232.631 253 270.19 253h55q36.56 0 63.685 27.906T416 345v461q0 38.588-26.943 65.294Q362.115 898 324.655 898h-55Z"/></svg>