<svg width="11" height="10" viewBox="0 0 11 10" fill="none" xmlns="http://www.w3.org/2000/svg">
<path d="M5.51368 -2.68976e-05C5.44703 -0.000805857 5.3809 0.0117534 5.31918 0.0368994C5.25745 0.0620454 5.20137 0.099267 5.15424 0.146396C5.10711 0.193526 5.06988 0.249588 5.04474 0.311313C5.01959 0.373039 5.00704 0.439186 5.00782 0.505832V4.00779H1.50587C1.43764 4.00341 1.36925 4.01307 1.30491 4.03617C1.24057 4.05927 1.18165 4.0953 1.13178 4.14206C1.08192 4.18883 1.04218 4.24535 1.01501 4.30808C0.987838 4.37081 0.973816 4.43845 0.973816 4.50681C0.973816 4.57517 0.987838 4.64281 1.01501 4.70554C1.04218 4.76827 1.08192 4.82479 1.13178 4.87156C1.18165 4.91832 1.24057 4.95435 1.30491 4.97745C1.36925 5.00055 1.43764 5.01021 1.50587 5.00583H5.00782V8.50779C5.00345 8.57601 5.0131 8.64437 5.0362 8.70871C5.0593 8.77306 5.09535 8.83201 5.14211 8.88187C5.18888 8.93173 5.24538 8.97146 5.30811 8.99863C5.37085 9.0258 5.43848 9.03983 5.50684 9.03983C5.57521 9.03983 5.64284 9.0258 5.70557 8.99863C5.76831 8.97146 5.8248 8.93173 5.87157 8.88187C5.91833 8.83201 5.95439 8.77306 5.97749 8.70871C6.00058 8.64437 6.01024 8.57601 6.00587 8.50779V5.00583H9.50782C9.57604 5.01021 9.64444 5.00055 9.70878 4.97745C9.77312 4.95435 9.83204 4.91832 9.8819 4.87156C9.93177 4.82479 9.97151 4.76827 9.99868 4.70554C10.0258 4.64281 10.0399 4.57517 10.0399 4.50681C10.0399 4.43845 10.0258 4.37081 9.99868 4.30808C9.97151 4.24535 9.93177 4.18883 9.8819 4.14206C9.83204 4.0953 9.77312 4.05927 9.70878 4.03617C9.64444 4.01307 9.57604 4.00341 9.50782 4.00779H6.00587V0.505832C6.00742 0.373559 5.9565 0.24609 5.86425 0.151279C5.772 0.0564688 5.64595 0.00204327 5.51368 -2.68976e-05V-2.68976e-05Z" fill="white"/>
</svg>
