<svg width="15" height="15" viewBox="0 0 15 15" fill="none" xmlns="http://www.w3.org/2000/svg">
<path d="M5.49219 0.0078125C5.35959 0.0078425 5.23237 0.0605069 5.13867 0.154297L1.13867 4.1543C1.04467 4.2481 0.992188 4.37521 0.992188 4.50781V13.5078C0.992188 13.7839 1.21609 14.0078 1.49219 14.0078H10.4922C10.6248 14.0078 10.7519 13.9551 10.8457 13.8613L14.8457 9.86133C14.9397 9.76753 14.9922 9.64041 14.9922 9.50781V0.507812C14.9922 0.231683 14.7683 0.0078425 14.4922 0.0078125H5.49219ZM12.9805 0.990234C13.1819 0.984294 13.3804 1.03933 13.55 1.14816C13.7197 1.25699 13.8524 1.41453 13.931 1.60011C14.0095 1.7857 14.0301 1.99068 13.9902 2.1882C13.9502 2.38572 13.8515 2.56657 13.707 2.70703L11 5.41406V12C11.0019 12.1325 10.9774 12.2641 10.928 12.387C10.8786 12.51 10.8052 12.6219 10.7122 12.7163C10.6191 12.8107 10.5082 12.8856 10.386 12.9368C10.2637 12.9879 10.1325 13.0142 10 13.0142C9.86747 13.0142 9.73627 12.9879 9.61401 12.9368C9.49176 12.8856 9.38089 12.8107 9.28784 12.7163C9.1948 12.6219 9.12144 12.51 9.07202 12.387C9.02261 12.2641 8.99813 12.1325 9 12V6H3C2.86749 6.00187 2.73593 5.97739 2.61296 5.92798C2.48999 5.87856 2.37806 5.8052 2.28369 5.71216C2.18932 5.61911 2.1144 5.50824 2.06325 5.38599C2.0121 5.26373 1.98576 5.13252 1.98576 5C1.98576 4.86748 2.0121 4.73627 2.06325 4.61401C2.1144 4.49176 2.18932 4.38089 2.28369 4.28784C2.37806 4.1948 2.48999 4.12144 2.61296 4.07202C2.73593 4.02261 2.86749 3.99813 3 4H9.58594L12.293 1.29297C12.4741 1.10655 12.7207 0.997977 12.9805 0.990234Z" fill="white"/>
</svg>
