<svg xmlns="http://www.w3.org/2000/svg" fill="#2199FF" height="48" viewBox="0 96 960 960" width="48"><path d="M487 724q-33 0-49-18t-14-48q2-46 20.5-77t59.5-62q38-30 57.5-61t19.5-65.173Q581 353 555.356 327.5T485 302q-33 0-56.907 12.436Q404.186 326.872 388 350q-16 20-38 24.5t-40.286-4.167Q278 356 275 325t18-57q33-40 80.415-64.5Q420.829 179 485 179q108.183 0 167.592 61.181Q712 301.361 712 390.41q0 58.59-22 103.09T624 578q-29 25-43.5 45.5T559 668q-11 26-30.412 41-19.413 15-41.588 15Zm-2.089 277Q448 1001 421.5 974.411q-26.5-26.588-26.5-62.5Q395 874 421.589 848q26.588-26 63.5-26Q523 822 549 848.089q26 26.088 26 64Q575 948 548.911 974.5q-26.088 26.5-64 26.5Z"/></svg>