<svg width="14" height="14" viewBox="0 0 14 14" fill="none" xmlns="http://www.w3.org/2000/svg">
<path d="M7 2C5.21667 2 4 3.5 4 5H6C6 4.5 6.28333 4 7 4C7.71667 4 8 4.5 8 5C8 5.24702 7.96356 5.30082 7.88281 5.41016C7.80207 5.5195 7.62888 5.66982 7.36914 5.88086C6.84966 6.30294 6 7.16667 6 8.5V9H8V8.5C8 7.83333 8.15034 7.82206 8.63086 7.43164C8.87112 7.23643 9.19793 6.99613 9.49219 6.59766C9.78644 6.19918 10 5.62798 10 5C10 3.5 8.78333 2 7 2ZM6 10.0001H8V12.0001H6V10.0001ZM7 0C3.13993 0 0 3.13991 0 7C0 10.8601 3.13993 14 7 14C10.8601 14 14 10.8601 14 7C14 3.13991 10.8601 0 7 0ZM7 1C10.3196 1 13 3.68035 13 7C13 10.3196 10.3196 13 7 13C3.68037 13 1 10.3196 1 7C1 3.68035 3.68037 1 7 1Z" fill="white"/>
</svg>
