<svg width="17" height="18" viewBox="0 0 17 18" fill="none" xmlns="http://www.w3.org/2000/svg">
<path opacity="0.99" d="M3.49414 -0.00976566C3.42848 -0.00874148 3.36365 0.00517494 3.30338 0.03125C3.2431 0.057325 3.18856 0.095056 3.14285 0.142212C3.09715 0.189368 3.0612 0.245034 3.03702 0.306091C3.01284 0.367148 3.00093 0.432385 3.00195 0.498047V4.49805C3.00197 4.63065 3.05464 4.7578 3.14841 4.85156C3.24217 4.94533 3.36935 4.99803 3.50195 4.99805H7.50195C7.56821 4.99898 7.63398 4.98674 7.69547 4.96204C7.75695 4.93733 7.81292 4.90065 7.86011 4.85413C7.90729 4.8076 7.94476 4.75217 7.97034 4.69104C7.99591 4.62991 8.00906 4.56431 8.00906 4.49805C8.00906 4.43178 7.99591 4.36618 7.97034 4.30505C7.94476 4.24393 7.90729 4.18849 7.86011 4.14197C7.81292 4.09545 7.75695 4.05876 7.69547 4.03406C7.63398 4.00935 7.56821 3.99711 7.50195 3.99805H4.81445C6.29868 1.43416 9.42184 0.338979 12.1816 1.41797C14.9436 2.49782 16.4981 5.42541 15.8457 8.31836C15.1933 11.2113 12.5343 13.1886 9.57617 12.9785C6.61803 12.7685 4.26242 10.4346 4.02539 7.47852C4.02267 7.41123 4.00638 7.34521 3.97751 7.28436C3.94864 7.22352 3.9078 7.16911 3.85739 7.12445C3.80699 7.07979 3.74808 7.04575 3.6842 7.02441C3.62033 7.00307 3.55279 6.99485 3.48566 7.00024C3.41853 7.00564 3.35319 7.02458 3.29355 7.05585C3.2339 7.08712 3.1812 7.13011 3.13858 7.18225C3.09596 7.23439 3.06431 7.29464 3.04553 7.35931C3.02676 7.42399 3.02123 7.49173 3.0293 7.55859C3.30525 11.0002 6.05997 13.7301 9.50391 13.9747C12.9478 14.2192 16.0628 11.9071 16.8223 8.53906C17.5818 5.17103 15.7624 1.74358 12.5469 0.486389C11.743 0.172089 10.9102 0.0175525 10.0879 0.00781247C7.65482 -0.0209875 5.30823 1.23059 4.00195 3.41608V0.498108C4.003 0.431131 3.99057 0.364575 3.96542 0.30249C3.94028 0.240405 3.90293 0.184024 3.85556 0.136658C3.8082 0.0892918 3.75178 0.0519439 3.6897 0.0267944C3.62761 0.00164489 3.56112 -0.0108134 3.49414 -0.00976566V-0.00976566ZM12.4824 2.99414C12.4073 2.99734 12.3339 3.01747 12.2676 3.05298C12.2013 3.08848 12.1439 3.13845 12.0996 3.19922L9.09961 7.19922C9.03744 7.28209 9.00255 7.38222 8.99976 7.48578C8.99696 7.58934 9.02641 7.69124 9.08402 7.77734L11.084 10.7773C11.1199 10.8331 11.1666 10.8811 11.2213 10.9186C11.2759 10.9562 11.3375 10.9825 11.4025 10.996C11.4674 11.0095 11.5343 11.01 11.5995 10.9974C11.6646 10.9848 11.7265 10.9593 11.7817 10.9225C11.8369 10.8857 11.8842 10.8383 11.9209 10.7831C11.9576 10.7278 11.9829 10.6658 11.9954 10.6007C12.0079 10.5356 12.0073 10.4686 11.9937 10.4037C11.9801 10.3388 11.9537 10.2773 11.916 10.2227L10.1133 7.51758L12.9004 3.80078C12.9692 3.71128 13.0057 3.60115 13.0039 3.48828C13.0032 3.42127 12.989 3.35506 12.9622 3.29364C12.9354 3.23222 12.8965 3.17683 12.8479 3.13074C12.7992 3.08464 12.7418 3.0488 12.679 3.02533C12.6162 3.00186 12.5494 2.99126 12.4825 2.99414H12.4824Z" fill="white"/>
<circle cx="7" cy="12.8182" r="4.45455" fill="white"/>
<path d="M7 8.36365C3.46763 8.36272 1.57295 11.0567 0.142605 12.4828C-0.0475351 12.6723 -0.0475351 12.9641 0.142605 13.1536C1.57318 14.5799 3.46816 17.2708 7 17.2727C10.5325 17.2747 12.4272 14.5796 13.8574 13.1536C14.0475 12.9641 14.0475 12.6723 13.8574 12.4828C12.427 11.0565 10.532 8.36458 7 8.36365ZM7 9.35333C7.49532 9.35333 7.98581 9.44293 8.44343 9.617C8.90104 9.79108 9.31679 10.0462 9.66702 10.3679C10.0173 10.6895 10.2951 11.0714 10.4847 11.4917C10.6742 11.9119 10.7718 12.3623 10.7718 12.8172C10.7718 13.2721 10.6742 13.7225 10.4847 14.1428C10.2951 14.5631 10.0173 14.9449 9.66702 15.2666C9.31679 15.5882 8.90104 15.8434 8.44343 16.0175C7.98581 16.1915 7.49532 16.2811 7 16.2811C6.50468 16.2811 6.01419 16.1915 5.55657 16.0175C5.09896 15.8434 4.68321 15.5882 4.33298 15.2666C3.98273 14.9449 3.70488 14.5631 3.51533 14.1428C3.32578 13.7225 3.22822 13.2721 3.22822 12.8172C3.22822 12.3623 3.32578 11.9119 3.51533 11.4917C3.70488 11.0714 3.98273 10.6895 4.33298 10.3679C4.68321 10.0462 5.09896 9.79108 5.55657 9.617C6.01419 9.44293 6.50468 9.35333 7 9.35333ZM7 11.3327C6.78772 11.3327 6.57751 11.3711 6.38139 11.4457C6.18527 11.5203 6.00707 11.6296 5.85697 11.7675C5.70686 11.9054 5.58782 12.069 5.50659 12.2491C5.42536 12.4292 5.38352 12.6223 5.38352 12.8172C5.38352 13.0122 5.42536 13.2052 5.50659 13.3853C5.58782 13.5654 5.70686 13.7291 5.85697 13.867C6.00707 14.0048 6.18527 14.1141 6.38139 14.1888C6.57751 14.2634 6.78772 14.3018 7 14.3018C7.21228 14.3018 7.42249 14.2634 7.61861 14.1888C7.81473 14.1141 7.99293 14.0048 8.14303 13.867C8.29314 13.7291 8.41218 13.5654 8.49341 13.3853C8.57465 13.2052 8.61648 13.0122 8.61648 12.8172C8.61648 12.6223 8.57465 12.4292 8.49341 12.2491C8.41218 12.069 8.29314 11.9054 8.14303 11.7675C7.99293 11.6296 7.81473 11.5203 7.61861 11.4457C7.42249 11.3711 7.21228 11.3327 7 11.3327Z" fill="#B9B9B9"/>
</svg>
