<svg width="14" height="14" viewBox="0 0 14 14" fill="none" xmlns="http://www.w3.org/2000/svg">
<path opacity="0.99" d="M0.494141 -0.00976566C0.428479 -0.00874148 0.363647 0.00517494 0.303376 0.03125C0.243104 0.057325 0.188558 0.095056 0.142853 0.142212C0.0971486 0.189368 0.0611968 0.245034 0.0370181 0.306091C0.0128394 0.367148 0.000925018 0.432385 0.00195342 0.498047V4.49805C0.00196668 4.63065 0.054642 4.7578 0.148407 4.85156C0.242173 4.94533 0.369349 4.99803 0.501953 4.99805H4.50195C4.56821 4.99898 4.63398 4.98674 4.69547 4.96204C4.75695 4.93733 4.81292 4.90065 4.86011 4.85413C4.90729 4.8076 4.94476 4.75217 4.97034 4.69104C4.99591 4.62991 5.00906 4.56431 5.00906 4.49805C5.00906 4.43178 4.99591 4.36618 4.97034 4.30505C4.94476 4.24393 4.90729 4.18849 4.86011 4.14197C4.81292 4.09545 4.75695 4.05876 4.69547 4.03406C4.63398 4.00935 4.56821 3.99711 4.50195 3.99805H1.81445C3.29868 1.43416 6.42184 0.338979 9.18164 1.41797C11.9436 2.49782 13.4981 5.42541 12.8457 8.31836C12.1933 11.2113 9.53431 13.1886 6.57617 12.9785C3.61803 12.7685 1.26242 10.4346 1.02539 7.47852C1.02267 7.41123 1.00638 7.34521 0.977509 7.28436C0.948639 7.22352 0.907796 7.16911 0.857392 7.12445C0.806988 7.07979 0.748079 7.04575 0.684204 7.02441C0.620329 7.00307 0.552786 6.99485 0.485657 7.00024C0.418528 7.00564 0.353193 7.02458 0.293549 7.05585C0.233905 7.08712 0.1812 7.13011 0.138581 7.18225C0.0959614 7.2344 0.0643093 7.29464 0.0455325 7.35931C0.0267558 7.42399 0.021228 7.49173 0.0292972 7.55859C0.305247 11.0002 3.05997 13.7301 6.50391 13.9747C9.94784 14.2192 13.0628 11.9071 13.8223 8.53906C14.5818 5.17103 12.7624 1.74358 9.54688 0.486389C8.74298 0.172089 7.91024 0.0175525 7.08789 0.00781247C4.65482 -0.0209875 2.30823 1.23059 1.00195 3.41608V0.498108C1.003 0.431131 0.990572 0.364575 0.965424 0.30249C0.940276 0.240405 0.902926 0.184024 0.855561 0.136658C0.808196 0.0892918 0.751782 0.0519439 0.689698 0.0267944C0.627613 0.00164489 0.561118 -0.0108134 0.494141 -0.00976566ZM9.48242 2.99414C9.4073 2.99734 9.33386 3.01747 9.26758 3.05298C9.2013 3.08849 9.14389 3.13845 9.09961 3.19922L6.09961 7.19922C6.03744 7.28209 6.00255 7.38222 5.99976 7.48578C5.99696 7.58934 6.02641 7.69124 6.08402 7.77734L8.08401 10.7773C8.11994 10.8331 8.16658 10.8811 8.22125 10.9186C8.27592 10.9562 8.33754 10.9825 8.40247 10.996C8.46739 11.0095 8.53435 11.01 8.59946 10.9974C8.66456 10.9848 8.72653 10.9593 8.78171 10.9225C8.83689 10.8857 8.88418 10.8383 8.92087 10.7831C8.95756 10.7278 8.98289 10.6658 8.99539 10.6007C9.0079 10.5356 9.00734 10.4686 8.99371 10.4037C8.98009 10.3388 8.95368 10.2773 8.91605 10.2227L7.11331 7.51758L9.90042 3.80078C9.96921 3.71128 10.0057 3.60115 10.0039 3.48828C10.0032 3.42127 9.98903 3.35506 9.96222 3.29364C9.93541 3.23222 9.89652 3.17683 9.84787 3.13074C9.79922 3.08464 9.74179 3.0488 9.67902 3.02533C9.61624 3.00186 9.54941 2.99126 9.48245 2.99414H9.48242Z" fill="white"/>
</svg>
