<svg width="14" height="14" viewBox="0 0 14 14" fill="none" xmlns="http://www.w3.org/2000/svg">
<path d="M4.48242 8.52684e-07C4.29282 0.00700085 4.12337 0.12023 4.04492 0.29297L0.271484 8.54297C0.270144 8.54597 0.268844 8.54998 0.267574 8.55298C0.158752 8.80634 0 9.10119 0 9.5C0 10.3381 0.526172 11.0347 1.29688 11.4219C2.06758 11.809 3.087 11.9777 4.32031 11.9941C4.61568 11.9971 4.84959 11.7455 4.82422 11.4512C4.82517 11.462 4.81313 11.0726 4.80859 10.7422C4.80409 10.4117 4.80079 10.0724 4.80079 10C4.80079 8.13232 5.81641 6.48086 7.32032 5.5625C7.54869 5.42322 7.627 5.12889 7.49806 4.89453L4.9375 0.257813C4.84642 0.0930734 4.67055 -0.00656915 4.48242 8.52684e-07ZM12 8.52684e-07C10.9014 8.52684e-07 10 0.901361 10 2C10 3.09864 10.9014 4 12 4C13.0986 4 14 3.09864 14 2C14 0.901361 13.0986 8.52684e-07 12 8.52684e-07ZM10 6C7.79678 6 6 7.79678 6 10C6 12.2032 7.79678 14 10 14C12.2032 14 14 12.2032 14 10C14 7.79678 12.2032 6 10 6ZM10 7C11.6628 7 13 8.33722 13 10C13 11.6628 11.6628 13 10 13C8.33722 13 7 11.6628 7 10C7 8.33722 8.33722 7 10 7ZM9.45898 8.0332C8.65874 8.0332 8 8.69389 8 9.49414C7.99906 9.5604 8.0113 9.62617 8.03601 9.68765C8.06072 9.74914 8.0974 9.80511 8.14392 9.8523C8.19044 9.89948 8.24588 9.93695 8.30701 9.96253C8.36814 9.9881 8.43374 10.0013 8.5 10.0013C8.56626 10.0013 8.63186 9.9881 8.69299 9.96253C8.75412 9.93695 8.80956 9.89948 8.85608 9.8523C8.9026 9.80511 8.93928 9.74914 8.96399 9.68765C8.9887 9.62617 9.00094 9.5604 9 9.49414C9 9.23433 9.19917 9.0332 9.45898 9.0332C9.52524 9.03414 9.59102 9.0219 9.65251 8.99719C9.71399 8.97249 9.76995 8.93581 9.81713 8.88928C9.86432 8.84276 9.90179 8.78733 9.92736 8.7262C9.95294 8.66507 9.96611 8.59947 9.96611 8.5332C9.96611 8.46694 9.95294 8.40134 9.92736 8.34021C9.90179 8.27908 9.86432 8.22365 9.81713 8.17712C9.76995 8.1306 9.71399 8.09392 9.65251 8.06921C9.59102 8.04451 9.52524 8.03227 9.45898 8.0332Z" fill="white"/>
</svg>
