<svg width="14" height="14" viewBox="0 0 14 14" fill="none" xmlns="http://www.w3.org/2000/svg">
	<path d="M6 0C5.8674 2e-05 5.74024 0.0527044 5.64648 0.146484L2.79297 3H0.5C0.22387 3.00003 3e-05 3.22387 0 3.5V10.5C3e-05 10.7761 0.22387 11 0.5 11H2.79297L5.64648 13.8535C5.74028 13.9473 5.8674 14 6 14H6.5C6.77613 14 6.99997 13.7761 7 13.5V0.78125V0.5C6.99997 0.22387 6.77613 3e-05 6.5 0H6ZM12.4668 2.01562C12.3841 2.02001 12.3039 2.04486 12.2332 2.08792C12.1625 2.13098 12.1036 2.19092 12.0618 2.26236C12.0199 2.3338 11.9965 2.4145 11.9936 2.49722C11.9906 2.57995 12.0083 2.6621 12.0449 2.73633C13.321 5.44281 13.3182 8.57705 12.0369 11.2812C12.0088 11.3406 11.9927 11.4049 11.9895 11.4706C11.9863 11.5362 11.996 11.6018 12.0181 11.6636C12.0402 11.7255 12.0743 11.7824 12.1184 11.831C12.1625 11.8797 12.2158 11.9192 12.2752 11.9473C12.3346 11.9754 12.3989 11.9915 12.4645 11.9947C12.5301 11.9979 12.5957 11.9882 12.6576 11.9661C12.7194 11.944 12.7763 11.9099 12.825 11.8658C12.8736 11.8216 12.9131 11.7684 12.9412 11.709C14.3499 8.73501 14.3522 5.28507 12.9492 2.30859C12.9077 2.21686 12.8394 2.1398 12.7533 2.08752C12.6672 2.03525 12.5674 2.0102 12.4668 2.01562V2.01562ZM9.60547 2.95312C9.51879 2.9538 9.43379 2.97701 9.35878 3.02045C9.28377 3.06389 9.22134 3.12608 9.17761 3.20093C9.13389 3.27577 9.11038 3.36068 9.10938 3.44736C9.10837 3.53403 9.1299 3.61948 9.17188 3.69531C10.2747 5.75544 10.2764 8.22871 9.17789 10.291C9.14697 10.349 9.12778 10.4125 9.1214 10.4779C9.11502 10.5433 9.12158 10.6092 9.14072 10.6721C9.15985 10.7349 9.19117 10.7934 9.23289 10.8441C9.27462 10.8949 9.32594 10.9369 9.38391 10.9678C9.44188 10.9987 9.50537 11.0179 9.57076 11.0243C9.63614 11.0307 9.70215 11.0241 9.765 11.0049C9.82785 10.9858 9.88631 10.9545 9.93704 10.9128C9.98778 10.871 10.0298 10.8197 10.0607 10.7617C11.3159 8.40589 11.3129 5.57794 10.0527 3.22461C10.0105 3.14247 9.94636 3.07362 9.86742 3.0257C9.78847 2.97778 9.69779 2.95266 9.60544 2.95312H9.60547Z" fill="white"/>
</svg>
