<svg xmlns="http://www.w3.org/2000/svg" fill="white" height="48" viewBox="0 -960 960 960" width="48"><path d="m210.935-310.043 85.935 85.934q10.478 11.968 10.478 27.838 0 15.869-10.087 26.19-12.27 11.559-28.246 11.559-15.976 0-26.254-11.478L90.239-321.761Q85-327 81.761-334.112q-3.24-7.111-3.24-15.123 0-7.772 3.058-14.584 3.057-6.811 8.66-13.051l151.522-150.76q11.808-11.479 27.719-11.479 15.911 0 27.781 11.479 10.337 11.808 10.212 27.219-.125 15.411-10.603 26.889l-85.935 85.935H474.13q15.971 0 27.181 11.273 11.211 11.274 11.211 27.37 0 16.576-11.211 27.738-11.21 11.163-27.181 11.163H210.935Zm539.369-262.37H486.87q-16.946 0-28.049-11.457-11.104-11.458-11.104-27.794t11.104-27.314q11.103-10.979 28.049-10.979h263.434L664.13-736.13q-11.478-11.729-11.478-27.599 0-15.869 11.087-27.429 10.87-10.32 26.846-10.32T718.239-791l151.522 151.761Q875-633 878.739-626.002t3.739 14.831q0 8.072-3.739 14.937-3.739 6.864-8.978 12.104L718.239-432.609q-11.808 11.718-27.719 11.718-15.911 0-27.172-11.718-10.696-11.478-10.696-26.889t11.478-27.219l86.174-85.696Z"/></svg>