<svg xmlns="http://www.w3.org/2000/svg" height="48" fill="white" viewBox="0 96 960 960" width="48"><path d="M480 724q-19.025 0-32.013-12.987Q435 698.025 435 679V391l-74 74q-13 13-31.5 12.5T297 465q-12-13-12-32t12-32l152-151q5-6 13.52-9.5t17.4-3.5q8.88 0 17.4 3.5 8.52 3.5 14.68 9.5l151 151q13.167 13.25 13.083 31.625Q676 451 663 465q-13 13-32 13t-32-13l-73-74v288q0 19.025-13.275 32.013Q499.45 724 480 724ZM311 927q-20.025 0-32.513-12.982-12.487-12.983-12.487-32Q266 862 278.487 849q12.488-13 32.513-13h338q20.45 0 33.225 12.775Q695 861.55 695 882q0 19.025-12.775 32.013Q669.45 927 649 927H311Z"/></svg>