<svg width="14" height="14" viewBox="0 0 14 14" fill="none" xmlns="http://www.w3.org/2000/svg">
<path opacity="0.99" d="M0.4922 -0.00590927C0.21605 -0.00160927 -0.004308 0.225757 1.1998e-05 0.501903V13.4941C-0.004988 13.8322 0.247582 14.0035 0.500012 14.0019L1.00001 13.998V12.0019H3.00001V13.998H11V12.0019H13V13.998H13.5C13.7525 13.998 14.0048 13.8283 14 13.4902V0.501903C14.005 0.163822 13.7524 -0.00751227 13.5 -0.00590927L13 -0.00200302V2.0019H11V-0.00200302H3.00001V2.0019H1.00001V-0.00200302L0.4922 -0.00590927ZM1.00001 3.0019H3.00001V5.0019H1.00001V3.0019ZM11 3.0019H13V5.0019H11V3.0019ZM5.47657 4.00581C5.57707 4.00181 5.67673 4.02898 5.76173 4.08198L9.76173 6.58198C10.0746 6.77788 10.0746 7.23374 9.76173 7.42964L5.76173 9.92964C5.42863 10.1383 4.99601 9.89891 4.99611 9.50581V4.50581C4.99591 4.23711 5.20807 4.01681 5.47657 4.00581ZM1.00001 6.0019H3.00001V8.0019H1.00001V6.0019ZM11 6.0019H13V8.0019H11V6.0019ZM1.00001 9.0019H3.00001V10.9941H1.00001V9.0019ZM11 9.0019H13V10.9941H11V9.0019Z" fill="white"/>
</svg>
