<svg width="14" height="15" viewBox="0 0 14 15" fill="none" xmlns="http://www.w3.org/2000/svg">
<path d="M0.5 1C0.367396 1.00001 0.240219 1.0527 0.146454 1.14646C0.0526885 1.24023 1.32584e-05 1.3674 0 1.5V14.5C1.32584e-05 14.6326 0.0526885 14.7598 0.146454 14.8535C0.240219 14.9473 0.367396 15 0.5 15H13.5C13.6326 15 13.7598 14.9473 13.8535 14.8535C13.9473 14.7598 14 14.6326 14 14.5V1.5C14 1.3674 13.9473 1.24023 13.8535 1.14646C13.7598 1.0527 13.6326 1.00001 13.5 1H0.5ZM1 2H13V14H1V2Z" fill="white"/>
<path d="M0.587891 1.00586C0.303581 0.95665 0.00013 1.16601 0 1.5V14.5C3e-05 14.7761 0.22387 15 0.5 15H13.5C13.9453 14.9998 14.1683 14.4615 13.8535 14.1465L0.853516 1.14649C0.774716 1.06779 0.682661 1.02227 0.587891 1.00586ZM4.49609 7C4.68709 6.999 4.86217 7.10631 4.94727 7.27735L7.94727 13.2773C8.11247 13.6096 7.8713 13.9997 7.5 14H1.5C1.129 13.9997 0.887534 13.6096 1.05273 13.2773L4.05273 7.27735C4.13673 7.10882 4.30789 7.00163 4.49609 7Z" fill="white"/>
<path opacity="0.99" d="M10.5 4C11.3225 4 12 4.67749 12 5.5C12 6.32251 11.3225 7 10.5 7C9.67749 7 9 6.32251 9 5.5C9 4.67749 9.67749 4 10.5 4Z" fill="white"/>
</svg>
