<svg width="16" height="16" viewBox="0 0 16 16" fill="none" xmlns="http://www.w3.org/2000/svg">
	<path opacity="0.99" d="M14.4961 0.99024C14.3663 0.993852 14.2431 1.04778 14.1523 1.14063L12.582 2.71094C11.3534 1.64532 9.75619 0.994146 8.00585 0.994146C4.14578 0.994146 1.00585 4.13408 1.00585 7.99415C1.00585 9.74448 1.65508 11.3437 2.7207 12.5723L1.15234 14.1406C1.10437 14.1867 1.06609 14.2419 1.03971 14.3029C1.01334 14.364 0.99941 14.4297 0.998743 14.4962C0.998077 14.5627 1.01069 14.6287 1.03583 14.6903C1.06097 14.7518 1.09814 14.8078 1.14517 14.8548C1.1922 14.9018 1.24815 14.939 1.30973 14.9642C1.3713 14.9893 1.43727 15.0019 1.50378 15.0012C1.57029 15.0006 1.63599 14.9866 1.69705 14.9603C1.75811 14.9339 1.81329 14.8956 1.85937 14.8477L3.42773 13.2793C4.65631 14.3449 6.25552 14.9941 8.00585 14.9941C11.8659 14.9941 15.0059 11.8542 15.0059 7.99415C15.0059 6.24382 14.3547 4.64655 13.2891 3.41797L14.8594 1.84766C14.9313 1.77737 14.9803 1.68703 15.0001 1.58845C15.0199 1.48986 15.0095 1.38757 14.9702 1.29499C14.931 1.2024 14.8648 1.12383 14.7802 1.06946C14.6956 1.01509 14.5966 0.98748 14.4961 0.99024V0.99024ZM8.00585 1.99415C11.3255 1.99415 14.0059 4.67452 14.0059 7.99415C14.0059 11.3138 11.3255 13.9941 8.00585 13.9941C4.68622 13.9941 2.00585 11.3138 2.00585 7.99415C2.00585 7.11323 2.1997 6.2801 2.53906 5.52735L3.00585 5.99415L4.00585 6.99415V8.99415H6.00585V9.99415L7.00585 10.9941V12.9941H7.75585H9.00585L10.0059 11.9941L11.0059 10.9941V9.99415L10.0059 8.99415H8.00585H7.00585L6.00585 7.99415H5.00585L6.00585 6.99415H7.00585L9.00585 4.99415L8.00585 3.99415H7.00585L6.00585 2.99415L6.90039 2.09961C7.259 2.03301 7.62762 1.99415 8.00585 1.99415Z" fill="white"/>
</svg>
