<svg width="14" height="14" viewBox="0 0 14 14" fill="none" xmlns="http://www.w3.org/2000/svg">
<path d="M9.48245 0.0156291L8.5137 0.0312541C8.4948 0.0315141 8.47589 0.0332214 8.45709 0.0352214C5.8742 0.365891 3.87721 2.63561 4.00592 5.25007C4.03472 5.83494 4.2377 6.34861 4.44732 6.84577L0.662167 10.6309C0.325087 10.9383 0.0612621 11.3602 0.0215421 11.8614C-0.0181579 12.3626 0.194152 12.9012 0.646542 13.3536C1.10011 13.8071 1.6425 14.0119 2.13873 13.9669C2.63497 13.9219 3.04472 13.6631 3.35357 13.3536L7.16021 9.54694C7.68812 9.77255 8.22951 9.98004 8.85357 9.99811C11.4567 10.0735 13.6885 8.12434 13.9669 5.53522C13.9679 5.52162 13.9689 5.50791 13.9689 5.49421L13.9904 4.52741C14.0009 4.07639 13.4559 3.84316 13.1369 4.16217L10.293 7H8.70706L7.00003 5.29297V3.70704L9.84378 0.869145C10.1613 0.551485 9.93158 0.00872912 9.48245 0.0156291V0.0156291Z" fill="white"/>
</svg>
