<svg width="100%" height="100%" viewBox="0 0 194 40" version="1.1" xmlns="http://www.w3.org/2000/svg" xmlns:xlink="http://www.w3.org/1999/xlink" xml:space="preserve" style="fill-rule:evenodd;clip-rule:evenodd;stroke-linejoin:round;stroke-miterlimit:2;background: #003f7b;">
    <g>
        <rect x="0.516" y="0.314" width="52.477" height="39.286" style="fill:rgb(233,104,15);"></rect>
        <path d="M63.008,24.698C64.492,25.661 65.963,26.417 67.42,26.968C68.876,27.517 70.237,27.79 71.502,27.79C72.711,27.79 73.632,27.62 74.264,27.274C74.896,26.932 75.212,26.417 75.212,25.729C75.212,25.372 75.074,25.09 74.8,24.883C74.525,24.676 74.161,24.506 73.708,24.369C73.254,24.23 72.725,24.121 72.12,24.039C71.516,23.957 70.897,23.848 70.266,23.709C69.661,23.6 68.953,23.469 68.142,23.316C67.331,23.166 66.499,22.945 65.648,22.656C64.796,22.369 63.951,22.004 63.113,21.564C62.274,21.125 61.526,20.562 60.866,19.873C60.206,19.187 59.677,18.368 59.279,17.42C58.88,16.472 58.681,15.352 58.681,14.06C58.681,12.164 59.052,10.597 59.794,9.36C60.537,8.123 61.478,7.141 62.618,6.412C63.758,5.683 65.03,5.175 66.431,4.887C67.833,4.598 69.193,4.454 70.513,4.454C72.821,4.454 74.889,4.79 76.718,5.464C78.546,6.138 80.298,7.121 81.974,8.412C82.193,8.605 82.318,8.839 82.345,9.113C82.372,9.389 82.304,9.636 82.138,9.855L78.923,14.433C78.758,14.653 78.537,14.79 78.264,14.845C77.989,14.9 77.741,14.845 77.522,14.68C76.12,13.8 74.814,13.175 73.605,12.803C72.396,12.433 71.282,12.247 70.266,12.247C69.962,12.247 69.613,12.254 69.215,12.268C68.816,12.282 68.438,12.336 68.082,12.433C67.724,12.53 67.428,12.687 67.195,12.907C66.961,13.127 66.844,13.429 66.844,13.814C66.844,14.199 67.133,14.542 67.71,14.845C68.287,15.148 68.947,15.408 69.689,15.627C70.431,15.848 71.145,16.019 71.832,16.143C72.519,16.267 72.959,16.342 73.152,16.37C74.141,16.562 75.227,16.844 76.409,17.215C77.591,17.586 78.697,18.136 79.728,18.864C80.758,19.593 81.624,20.541 82.326,21.707C83.026,22.875 83.376,24.34 83.376,26.1C83.376,27.748 83.087,29.17 82.511,30.366C81.934,31.561 81.13,32.544 80.099,33.313C79.068,34.083 77.831,34.655 76.389,35.026C74.946,35.395 73.345,35.581 71.586,35.581C70.157,35.581 68.824,35.464 67.587,35.231C66.35,34.997 65.195,34.674 64.124,34.262C63.052,33.85 62.056,33.364 61.135,32.799C60.214,32.234 59.369,31.637 58.6,31.006C58.38,30.84 58.256,30.613 58.229,30.324C58.202,30.035 58.271,29.781 58.435,29.562L61.61,24.984C61.775,24.765 61.995,24.629 62.27,24.572C62.54,24.522 62.788,24.561 63.008,24.698" style="fill:white;fill-rule:nonzero;"></path>
        <path d="M97.563,26.926L93.968,26.926C93.692,26.926 93.459,27.022 93.266,27.213C93.072,27.406 92.976,27.639 92.976,27.912L92.976,34.057C92.976,34.33 92.88,34.565 92.688,34.756C92.497,34.949 92.265,35.045 91.991,35.045L85.797,35.045C85.523,35.045 85.29,34.949 85.099,34.756C84.908,34.565 84.812,34.33 84.812,34.057L84.812,5.859C84.812,5.584 84.908,5.35 85.1,5.158C85.292,4.965 85.526,4.868 85.801,4.868L98.416,4.868C99.953,4.868 101.406,5.158 102.766,5.734C104.127,6.312 105.309,7.109 106.311,8.126C107.315,9.143 108.112,10.325 108.704,11.672C109.294,13.019 109.589,14.462 109.589,16C109.589,17.539 109.343,18.976 108.847,20.307C108.351,21.641 107.599,22.797 106.593,23.772C105.589,24.749 104.335,25.518 102.833,26.079C101.332,26.643 99.574,26.926 97.563,26.926M97.865,12.455L93.97,12.455C93.693,12.455 93.459,12.551 93.265,12.743C93.072,12.934 92.975,13.166 92.975,13.439L92.975,18.274C92.975,18.546 93.072,18.779 93.265,18.97C93.459,19.161 93.693,19.257 93.97,19.257L98.404,19.257C99.453,19.257 100.22,18.923 100.703,18.253C101.185,17.585 101.428,16.826 101.428,15.979C101.428,15.542 101.352,15.112 101.201,14.688C101.047,14.265 100.82,13.889 100.517,13.562C100.212,13.234 99.837,12.968 99.396,12.763C98.957,12.558 98.445,12.455 97.865,12.455" style="fill:white;fill-rule:nonzero;"></path>
        <path d="M110.574,19.958C110.574,17.814 110.988,15.794 111.812,13.897C112.636,12.002 113.75,10.346 115.152,8.93C116.552,7.514 118.203,6.394 120.097,5.57C121.995,4.745 124.015,4.333 126.16,4.333C128.303,4.333 130.324,4.745 132.221,5.57C134.116,6.394 135.772,7.514 137.188,8.93C138.602,10.346 139.723,12.002 140.547,13.897C141.371,15.794 141.783,17.814 141.783,19.958C141.783,22.102 141.371,24.122 140.547,26.018C139.723,27.914 138.602,29.571 137.188,30.985C135.772,32.401 134.116,33.52 132.221,34.344C130.325,35.17 128.303,35.582 126.16,35.582C124.015,35.582 121.996,35.17 120.097,34.344C118.202,33.52 116.552,32.401 115.152,30.985C113.75,29.571 112.636,27.913 111.812,26.018C110.988,24.122 110.574,22.102 110.574,19.958M118.738,19.958C118.738,21.002 118.929,21.991 119.314,22.926C119.699,23.861 120.228,24.686 120.902,25.399C121.576,26.114 122.365,26.684 123.273,27.11C124.181,27.536 125.142,27.749 126.16,27.749C127.176,27.749 128.137,27.536 129.045,27.11C129.951,26.684 130.748,26.114 131.436,25.399C132.124,24.686 132.659,23.862 133.045,22.926C133.428,21.992 133.621,21.002 133.621,19.958C133.621,18.942 133.428,17.958 133.045,17.01C132.658,16.062 132.123,15.238 131.436,14.536C130.748,13.835 129.952,13.272 129.045,12.846C128.137,12.42 127.176,12.207 126.16,12.207C125.142,12.207 124.181,12.42 123.273,12.846C122.365,13.272 121.576,13.836 120.902,14.536C120.228,15.238 119.699,16.061 119.314,17.01C118.93,17.958 118.738,18.942 118.738,19.958" style="fill:white;fill-rule:nonzero;"></path>
        <path d="M150.217,35.045L144.043,35.045C143.766,35.045 143.531,34.949 143.338,34.756C143.145,34.565 143.049,34.33 143.049,34.057L143.049,5.859C143.049,5.584 143.145,5.35 143.336,5.158C143.527,4.965 143.764,4.868 144.037,4.868L156.859,4.868C158.453,4.868 159.923,5.136 161.269,5.672C162.617,6.208 163.763,6.958 164.712,7.92C165.659,8.882 166.401,10.022 166.939,11.342C167.474,12.66 167.742,14.118 167.742,15.712C167.742,16.592 167.638,17.463 167.433,18.33C167.228,19.195 166.931,20.013 166.546,20.782C166.161,21.553 165.708,22.245 165.185,22.864C164.664,23.483 164.074,23.999 163.414,24.409C163.191,24.575 163.049,24.776 162.98,25.009C162.911,25.242 162.96,25.468 163.125,25.691C164.168,27.064 165.27,28.478 166.422,29.937C167.576,31.394 168.61,32.726 169.514,33.935C169.68,34.156 169.723,34.394 169.639,34.656C169.557,34.918 169.377,35.049 169.104,35.049L161.434,35.049C161.159,35.049 160.864,34.975 160.547,34.822C160.233,34.672 159.992,34.486 159.826,34.265C158.949,33.111 158.08,31.943 157.219,30.761C156.358,29.579 155.502,28.384 154.656,27.173C154.492,26.954 154.258,26.769 153.957,26.618C153.658,26.466 153.369,26.393 153.098,26.393L152.194,26.393C151.921,26.393 151.688,26.487 151.499,26.68C151.306,26.871 151.212,27.106 151.212,27.379L151.212,34.059C151.212,34.332 151.114,34.567 150.921,34.758C150.728,34.949 150.492,35.045 150.217,35.045M152.195,18.803L156.543,18.803C156.871,18.803 157.213,18.741 157.568,18.617C157.925,18.493 158.252,18.302 158.552,18.04C158.853,17.779 159.099,17.456 159.292,17.071C159.483,16.686 159.579,16.233 159.579,15.71C159.579,15.436 159.53,15.112 159.434,14.741C159.338,14.37 159.174,14.013 158.942,13.67C158.71,13.327 158.397,13.038 157.999,12.804C157.603,12.571 157.118,12.454 156.542,12.454L152.194,12.454C151.921,12.454 151.688,12.551 151.497,12.742C151.306,12.935 151.21,13.169 151.21,13.443L151.21,17.814C151.21,18.089 151.306,18.323 151.497,18.515C151.689,18.708 151.922,18.803 152.195,18.803" style="fill:white;fill-rule:nonzero;"></path>
        <path d="M191.525,12.455L185.752,12.455C185.479,12.455 185.244,12.552 185.053,12.743C184.862,12.936 184.764,13.17 184.764,13.444L184.764,34.058C184.764,34.333 184.676,34.568 184.498,34.757C184.316,34.95 184.076,35.046 183.775,35.046L177.591,35.046C177.316,35.046 177.081,34.95 176.89,34.757C176.699,34.566 176.601,34.331 176.601,34.058L176.601,13.443C176.601,13.17 176.511,12.936 176.333,12.742C176.153,12.551 175.913,12.454 175.612,12.454L169.758,12.454C169.481,12.454 169.248,12.358 169.055,12.166C168.864,11.973 168.768,11.739 168.768,11.464L168.768,5.859C168.768,5.584 168.864,5.35 169.055,5.158C169.248,4.965 169.481,4.868 169.758,4.868L191.526,4.868C191.827,4.868 192.067,4.965 192.247,5.158C192.425,5.35 192.515,5.584 192.515,5.859L192.515,11.465C192.515,11.74 192.425,11.973 192.247,12.167C192.066,12.359 191.826,12.455 191.525,12.455" style="fill:white;fill-rule:nonzero;"></path>
        <path d="M34.013,20.021L49.788,2.714L35.267,2.714L26.752,12.056L18.239,2.714L3.721,2.714L19.493,20.021L3.834,37.202L18.354,37.202L26.752,27.987L35.152,37.202L49.672,37.202L34.013,20.021Z" style="fill:white;fill-rule:nonzero;"></path>
    </g>
</svg>